<mxfile host="Electron" agent="Mozilla/5.0 (Windows NT 10.0; Win64; x64) AppleWebKit/537.36 (KHTML, like Gecko) draw.io/24.7.17 Chrome/128.0.6613.36 Electron/32.0.1 Safari/537.36" version="24.7.17" pages="2">
  <diagram name="远调用原理" id="-QZdfA4MACp9aRWlO6vT">
    <mxGraphModel dx="1050" dy="621" grid="1" gridSize="10" guides="1" tooltips="1" connect="1" arrows="1" fold="1" page="1" pageScale="1" pageWidth="827" pageHeight="1169" math="0" shadow="0">
      <root>
        <mxCell id="0" />
        <mxCell id="1" parent="0" />
        <mxCell id="ML8BMpae_mafnZTGD3tt-73" value="系统调用过程" style="rounded=0;whiteSpace=wrap;html=1;verticalAlign=bottom;spacingBottom=4;fontSize=18;movable=0;resizable=0;rotatable=0;deletable=0;editable=0;locked=1;connectable=0;" parent="1" vertex="1">
          <mxGeometry width="1080" height="1640" as="geometry" />
        </mxCell>
        <mxCell id="ML8BMpae_mafnZTGD3tt-36" value="" style="endArrow=none;html=1;rounded=0;" parent="1" target="ML8BMpae_mafnZTGD3tt-27" edge="1">
          <mxGeometry width="50" height="50" relative="1" as="geometry">
            <mxPoint x="260" y="1600" as="sourcePoint" />
            <mxPoint x="260" y="270" as="targetPoint" />
          </mxGeometry>
        </mxCell>
        <mxCell id="ML8BMpae_mafnZTGD3tt-28" value="" style="edgeStyle=orthogonalEdgeStyle;rounded=0;orthogonalLoop=1;jettySize=auto;html=1;" parent="1" source="ML8BMpae_mafnZTGD3tt-1" target="ML8BMpae_mafnZTGD3tt-27" edge="1">
          <mxGeometry relative="1" as="geometry" />
        </mxCell>
        <mxCell id="ML8BMpae_mafnZTGD3tt-13" value="" style="group" parent="1" vertex="1" connectable="0">
          <mxGeometry x="440" y="60" width="280" height="110" as="geometry" />
        </mxCell>
        <mxCell id="ML8BMpae_mafnZTGD3tt-2" value="&lt;font style=&quot;font-size: 16px;&quot; face=&quot;Courier New&quot;&gt;&lt;b style=&quot;font-size: 16px;&quot;&gt;GDT&lt;/b&gt;&lt;/font&gt;" style="rounded=1;whiteSpace=wrap;html=1;arcSize=10;align=right;spacingLeft=10;spacingRight=10;fontSize=16;" parent="ML8BMpae_mafnZTGD3tt-13" vertex="1">
          <mxGeometry width="280" height="110" as="geometry" />
        </mxCell>
        <mxCell id="ML8BMpae_mafnZTGD3tt-6" value="" style="group;fontFamily=Courier New;" parent="ML8BMpae_mafnZTGD3tt-13" vertex="1" connectable="0">
          <mxGeometry x="10" y="10" width="220" height="30" as="geometry" />
        </mxCell>
        <mxCell id="ML8BMpae_mafnZTGD3tt-4" value="KERNEL_CODE_SEG(1)" style="rounded=0;whiteSpace=wrap;html=1;fillColor=#008a00;fontColor=#ffffff;strokeColor=#005700;fontFamily=Courier New;" parent="ML8BMpae_mafnZTGD3tt-6" vertex="1">
          <mxGeometry width="167.61904761904762" height="30" as="geometry" />
        </mxCell>
        <mxCell id="ML8BMpae_mafnZTGD3tt-5" value="CODE" style="rounded=0;whiteSpace=wrap;html=1;fillColor=#6a00ff;fontColor=#ffffff;strokeColor=#3700CC;fontFamily=Courier New;" parent="ML8BMpae_mafnZTGD3tt-6" vertex="1">
          <mxGeometry x="167.61904761904762" width="52.38095238095239" height="30" as="geometry" />
        </mxCell>
        <mxCell id="ML8BMpae_mafnZTGD3tt-7" value="" style="group;fontFamily=Courier New;" parent="ML8BMpae_mafnZTGD3tt-13" vertex="1" connectable="0">
          <mxGeometry x="10" y="40" width="220" height="30" as="geometry" />
        </mxCell>
        <mxCell id="ML8BMpae_mafnZTGD3tt-8" value="KERNEL_DATA_SEG(2)" style="rounded=0;whiteSpace=wrap;html=1;fillColor=#008a00;fontColor=#ffffff;strokeColor=#005700;fontFamily=Courier New;" parent="ML8BMpae_mafnZTGD3tt-7" vertex="1">
          <mxGeometry width="167.61904761904762" height="30" as="geometry" />
        </mxCell>
        <mxCell id="ML8BMpae_mafnZTGD3tt-9" value="DATA" style="rounded=0;whiteSpace=wrap;html=1;fillColor=#6a00ff;fontColor=#ffffff;strokeColor=#3700CC;fontFamily=Courier New;" parent="ML8BMpae_mafnZTGD3tt-7" vertex="1">
          <mxGeometry x="167.61904761904762" width="52.38095238095239" height="30" as="geometry" />
        </mxCell>
        <mxCell id="ML8BMpae_mafnZTGD3tt-10" value="" style="group;fontFamily=Courier New;" parent="ML8BMpae_mafnZTGD3tt-13" vertex="1" connectable="0">
          <mxGeometry x="10" y="70" width="220" height="30" as="geometry" />
        </mxCell>
        <mxCell id="ML8BMpae_mafnZTGD3tt-11" value="SYSCALL_GATE_SEG(5)" style="rounded=0;whiteSpace=wrap;html=1;fillColor=#008a00;fontColor=#ffffff;strokeColor=#005700;fontFamily=Courier New;" parent="ML8BMpae_mafnZTGD3tt-10" vertex="1">
          <mxGeometry width="167.61904761904762" height="30" as="geometry" />
        </mxCell>
        <mxCell id="ML8BMpae_mafnZTGD3tt-12" value="TRAP" style="rounded=0;whiteSpace=wrap;html=1;fillColor=#d80073;fontColor=#ffffff;strokeColor=#A50040;fontFamily=Courier New;" parent="ML8BMpae_mafnZTGD3tt-10" vertex="1">
          <mxGeometry x="167.61904761904762" width="52.38095238095239" height="30" as="geometry" />
        </mxCell>
        <mxCell id="ML8BMpae_mafnZTGD3tt-15" value="&lt;font face=&quot;Courier New&quot;&gt;syscall_handler&lt;/font&gt;" style="rounded=1;whiteSpace=wrap;html=1;fillColor=#d80073;fontColor=#ffffff;strokeColor=#A50040;" parent="1" vertex="1">
          <mxGeometry x="182" y="125" width="156" height="40" as="geometry" />
        </mxCell>
        <mxCell id="ML8BMpae_mafnZTGD3tt-16" style="edgeStyle=orthogonalEdgeStyle;rounded=0;orthogonalLoop=1;jettySize=auto;html=1;" parent="1" source="ML8BMpae_mafnZTGD3tt-11" target="ML8BMpae_mafnZTGD3tt-15" edge="1">
          <mxGeometry relative="1" as="geometry" />
        </mxCell>
        <mxCell id="ML8BMpae_mafnZTGD3tt-17" value="&lt;div style=&quot;color: rgb(214, 214, 221); font-family: Consolas, &amp;quot;Courier New&amp;quot;, monospace; font-size: 16px; line-height: 160%; white-space: pre;&quot;&gt;&lt;div style=&quot;line-height: 160%;&quot;&gt;&lt;div style=&quot;font-size: 18px; line-height: 36px;&quot;&gt;&lt;div&gt;&amp;nbsp; &amp;nbsp; &lt;span style=&quot;color: #83d6c5;&quot;&gt;pusha&lt;/span&gt;&lt;/div&gt;&lt;div&gt;&amp;nbsp; &amp;nbsp; &lt;span style=&quot;color: #83d6c5;&quot;&gt;push&lt;/span&gt; %ds&lt;/div&gt;&lt;div&gt;&amp;nbsp; &amp;nbsp; &lt;span style=&quot;color: #83d6c5;&quot;&gt;push&lt;/span&gt; %es&lt;/div&gt;&lt;div&gt;&amp;nbsp; &amp;nbsp; &lt;span style=&quot;color: #83d6c5;&quot;&gt;push&lt;/span&gt; %fs&lt;/div&gt;&lt;div&gt;&amp;nbsp; &amp;nbsp; &lt;span style=&quot;color: #83d6c5;&quot;&gt;push&lt;/span&gt; %gs&lt;/div&gt;&lt;div&gt;&amp;nbsp; &amp;nbsp; &lt;span style=&quot;color: #83d6c5;&quot;&gt;pushf&lt;/span&gt;&lt;/div&gt;&lt;/div&gt;&lt;/div&gt;&lt;/div&gt;" style="rounded=1;whiteSpace=wrap;html=1;fillColor=#181818;align=left;labelBackgroundColor=none;arcSize=5;" parent="1" vertex="1">
          <mxGeometry x="40" y="305" width="200" height="240" as="geometry" />
        </mxCell>
        <mxCell id="ML8BMpae_mafnZTGD3tt-18" value="&lt;div style=&quot;color: rgb(214, 214, 221); font-family: Consolas, &amp;quot;Courier New&amp;quot;, monospace; font-size: 16px; line-height: 160%; white-space: pre;&quot;&gt;&lt;div style=&quot;line-height: 160%;&quot;&gt;&lt;div style=&quot;font-size: 18px; line-height: 36px;&quot;&gt;&lt;div style=&quot;&quot;&gt;&lt;span style=&quot;&quot;&gt;&amp;nbsp; &amp;nbsp; &lt;span style=&quot;color: rgb(131, 214, 197);&quot;&gt;mov&lt;/span&gt; %esp, %eax&lt;/span&gt;&lt;/div&gt;&lt;div style=&quot;&quot;&gt;&lt;span style=&quot;&quot;&gt;&amp;nbsp; &amp;nbsp; &lt;span style=&quot;color: rgb(131, 214, 197);&quot;&gt;push&lt;/span&gt; %eax&lt;/span&gt;&lt;/div&gt;&lt;/div&gt;&lt;/div&gt;&lt;/div&gt;" style="rounded=1;whiteSpace=wrap;html=1;fillColor=#181818;align=left;labelBackgroundColor=none;arcSize=12;" parent="1" vertex="1">
          <mxGeometry x="40" y="675" width="200" height="80" as="geometry" />
        </mxCell>
        <mxCell id="ML8BMpae_mafnZTGD3tt-19" value="&lt;div style=&quot;color: rgb(214, 214, 221); font-family: Consolas, &amp;quot;Courier New&amp;quot;, monospace; font-size: 16px; line-height: 160%; white-space: pre;&quot;&gt;&lt;div style=&quot;line-height: 160%;&quot;&gt;&lt;div style=&quot;font-size: 18px; line-height: 36px;&quot;&gt;&lt;div style=&quot;&quot;&gt;&lt;div style=&quot;background-color: rgb(24, 24, 24); line-height: 36px;&quot;&gt;&amp;nbsp; &amp;nbsp; &lt;span style=&quot;color: #83d6c5;&quot;&gt;call&lt;/span&gt; syscall&lt;/div&gt;&lt;/div&gt;&lt;/div&gt;&lt;/div&gt;&lt;/div&gt;" style="rounded=1;whiteSpace=wrap;html=1;fillColor=#181818;align=left;labelBackgroundColor=none;arcSize=10;" parent="1" vertex="1">
          <mxGeometry x="40" y="840" width="200" height="80" as="geometry" />
        </mxCell>
        <mxCell id="ML8BMpae_mafnZTGD3tt-20" value="&lt;div style=&quot;color: rgb(214, 214, 221); font-family: Consolas, &amp;quot;Courier New&amp;quot;, monospace; font-size: 16px; line-height: 160%; white-space: pre;&quot;&gt;&lt;div style=&quot;line-height: 160%;&quot;&gt;&lt;div style=&quot;font-size: 18px; line-height: 36px;&quot;&gt;&lt;div style=&quot;&quot;&gt;&lt;div style=&quot;background-color: rgb(24, 24, 24); line-height: 36px;&quot;&gt;&lt;div style=&quot;line-height: 36px;&quot;&gt;&amp;nbsp; &amp;nbsp; &lt;span style=&quot;color: #83d6c5;&quot;&gt;add&lt;/span&gt; $&lt;span style=&quot;color: #ebc88d;&quot;&gt;4&lt;/span&gt;, %esp&lt;/div&gt;&lt;/div&gt;&lt;/div&gt;&lt;/div&gt;&lt;/div&gt;&lt;/div&gt;" style="rounded=1;whiteSpace=wrap;html=1;fillColor=#181818;align=left;labelBackgroundColor=none;arcSize=15;" parent="1" vertex="1">
          <mxGeometry x="40" y="990" width="200" height="80" as="geometry" />
        </mxCell>
        <mxCell id="ML8BMpae_mafnZTGD3tt-21" value="&lt;div style=&quot;color: rgb(214, 214, 221); font-family: Consolas, &amp;quot;Courier New&amp;quot;, monospace; font-size: 16px; line-height: 160%; white-space: pre;&quot;&gt;&lt;div style=&quot;line-height: 160%;&quot;&gt;&lt;div style=&quot;font-size: 18px; line-height: 36px;&quot;&gt;&lt;div style=&quot;&quot;&gt;&lt;div style=&quot;background-color: rgb(24, 24, 24); line-height: 36px;&quot;&gt;&lt;div style=&quot;line-height: 36px;&quot;&gt;&lt;div style=&quot;line-height: 36px;&quot;&gt;&lt;div&gt;&amp;nbsp; &amp;nbsp; &lt;span style=&quot;color: #83d6c5;&quot;&gt;popf&lt;/span&gt;&lt;/div&gt;&lt;div&gt;&amp;nbsp; &amp;nbsp; &lt;span style=&quot;color: #83d6c5;&quot;&gt;pop&lt;/span&gt; %gs&lt;/div&gt;&lt;div&gt;&amp;nbsp; &amp;nbsp; &lt;span style=&quot;color: #83d6c5;&quot;&gt;pop&lt;/span&gt; %fs&lt;/div&gt;&lt;div&gt;&amp;nbsp; &amp;nbsp; &lt;span style=&quot;color: #83d6c5;&quot;&gt;pop&lt;/span&gt; %es&lt;/div&gt;&lt;div&gt;&amp;nbsp; &amp;nbsp; &lt;span style=&quot;color: #83d6c5;&quot;&gt;pop&lt;/span&gt; %ds&lt;/div&gt;&lt;div&gt;&amp;nbsp; &amp;nbsp; &lt;span style=&quot;color: #83d6c5;&quot;&gt;popa&lt;/span&gt;&lt;/div&gt;&lt;div&gt;&lt;br&gt;&lt;/div&gt;&lt;div&gt;&amp;nbsp; &amp;nbsp; &lt;span style=&quot;color: rgb(131, 214, 197);&quot;&gt;retf&lt;/span&gt; $(&lt;span style=&quot;color: rgb(235, 200, 141);&quot;&gt;5&lt;/span&gt; * &lt;span style=&quot;color: rgb(235, 200, 141);&quot;&gt;4&lt;/span&gt;)&lt;br&gt;&lt;/div&gt;&lt;/div&gt;&lt;/div&gt;&lt;/div&gt;&lt;/div&gt;&lt;/div&gt;&lt;/div&gt;&lt;/div&gt;" style="rounded=1;whiteSpace=wrap;html=1;fillColor=#181818;align=left;labelBackgroundColor=none;arcSize=7;" parent="1" vertex="1">
          <mxGeometry x="40" y="1210" width="200" height="320" as="geometry" />
        </mxCell>
        <mxCell id="ML8BMpae_mafnZTGD3tt-23" value="" style="endArrow=none;html=1;rounded=0;" parent="1" edge="1">
          <mxGeometry width="50" height="50" relative="1" as="geometry">
            <mxPoint y="620" as="sourcePoint" />
            <mxPoint x="1080" y="620" as="targetPoint" />
          </mxGeometry>
        </mxCell>
        <mxCell id="ML8BMpae_mafnZTGD3tt-24" value="" style="endArrow=none;html=1;rounded=0;" parent="1" edge="1">
          <mxGeometry width="50" height="50" relative="1" as="geometry">
            <mxPoint y="820" as="sourcePoint" />
            <mxPoint x="1080" y="820" as="targetPoint" />
          </mxGeometry>
        </mxCell>
        <mxCell id="ML8BMpae_mafnZTGD3tt-25" value="" style="endArrow=none;html=1;rounded=0;" parent="1" edge="1">
          <mxGeometry width="50" height="50" relative="1" as="geometry">
            <mxPoint y="970" as="sourcePoint" />
            <mxPoint x="1080" y="970" as="targetPoint" />
          </mxGeometry>
        </mxCell>
        <mxCell id="ML8BMpae_mafnZTGD3tt-26" value="" style="endArrow=none;html=1;rounded=0;" parent="1" source="ML8BMpae_mafnZTGD3tt-1" edge="1">
          <mxGeometry width="50" height="50" relative="1" as="geometry">
            <mxPoint y="220" as="sourcePoint" />
            <mxPoint x="1080" y="220" as="targetPoint" />
          </mxGeometry>
        </mxCell>
        <mxCell id="ML8BMpae_mafnZTGD3tt-29" style="edgeStyle=orthogonalEdgeStyle;rounded=0;orthogonalLoop=1;jettySize=auto;html=1;entryX=0.5;entryY=1;entryDx=0;entryDy=0;" parent="1" source="ML8BMpae_mafnZTGD3tt-27" target="ML8BMpae_mafnZTGD3tt-15" edge="1">
          <mxGeometry relative="1" as="geometry" />
        </mxCell>
        <mxCell id="ML8BMpae_mafnZTGD3tt-27" value="lcall" style="rounded=1;whiteSpace=wrap;html=1;fontFamily=Courier New;fillColor=#1ba1e2;fontColor=#ffffff;strokeColor=#006EAF;" parent="1" vertex="1">
          <mxGeometry x="220" y="200" width="80" height="40" as="geometry" />
        </mxCell>
        <mxCell id="ML8BMpae_mafnZTGD3tt-37" style="edgeStyle=orthogonalEdgeStyle;rounded=0;orthogonalLoop=1;jettySize=auto;html=1;entryX=0;entryY=0.5;entryDx=0;entryDy=0;" parent="1" source="ML8BMpae_mafnZTGD3tt-31" target="ML8BMpae_mafnZTGD3tt-34" edge="1">
          <mxGeometry relative="1" as="geometry" />
        </mxCell>
        <mxCell id="ML8BMpae_mafnZTGD3tt-31" value="&lt;span style=&quot;font-family: Consolas, &amp;quot;Courier New&amp;quot;, monospace; font-size: 14px; white-space-collapse: preserve; background-color: rgb(42, 40, 42);&quot;&gt;&lt;font&gt;0x10afdc:&#x9;0x01ff604e  eip&lt;/font&gt;&lt;/span&gt;&lt;div&gt;&lt;span style=&quot;font-family: Consolas, &amp;quot;Courier New&amp;quot;, monospace; font-size: 14px; white-space-collapse: preserve; background-color: rgb(42, 40, 42);&quot;&gt;&lt;font&gt;                0x0000003b  cs&lt;/font&gt;&lt;/span&gt;&lt;/div&gt;&lt;div&gt;&lt;span style=&quot;font-family: Consolas, &amp;quot;Courier New&amp;quot;, monospace; font-size: 14px; white-space-collapse: preserve; background-color: rgb(42, 40, 42);&quot;&gt;&lt;font&gt;                0x00000001  id&lt;/font&gt;&lt;/span&gt;&lt;/div&gt;&lt;div&gt;&lt;span style=&quot;font-family: Consolas, &amp;quot;Courier New&amp;quot;, monospace; font-size: 14px; white-space-collapse: preserve; background-color: rgb(42, 40, 42);&quot;&gt;&lt;font&gt;                0x000003e8  arg0&lt;br&gt;0x10afec:&#x9;0x00000000  arg1&lt;/font&gt;&lt;/span&gt;&lt;/div&gt;&lt;div&gt;&lt;span style=&quot;font-family: Consolas, &amp;quot;Courier New&amp;quot;, monospace; font-size: 14px; white-space-collapse: preserve; background-color: rgb(42, 40, 42);&quot;&gt;&lt;font&gt;                0x00000000  arg2&lt;/font&gt;&lt;/span&gt;&lt;/div&gt;&lt;div&gt;&lt;span style=&quot;font-family: Consolas, &amp;quot;Courier New&amp;quot;, monospace; font-size: 14px; white-space-collapse: preserve; background-color: rgb(42, 40, 42);&quot;&gt;&lt;font&gt;                0x00000000  arg3&lt;/font&gt;&lt;/span&gt;&lt;/div&gt;&lt;div&gt;&lt;span style=&quot;font-family: Consolas, &amp;quot;Courier New&amp;quot;, monospace; font-size: 14px; white-space-collapse: preserve; background-color: rgb(42, 40, 42);&quot;&gt;&lt;font&gt;                0x01ffff94&lt;br&gt;0x10affc:&#x9;0x00000033&lt;/font&gt;&lt;/span&gt;&lt;/div&gt;&lt;div&gt;&lt;span style=&quot;font-family: Consolas, &amp;quot;Courier New&amp;quot;, monospace; font-size: 14px; white-space-collapse: preserve; background-color: rgb(42, 40, 42);&quot;&gt;&lt;font&gt;                0x00100027&lt;/font&gt;&lt;/span&gt;&lt;/div&gt;&lt;div&gt;&lt;span style=&quot;font-family: Consolas, &amp;quot;Courier New&amp;quot;, monospace; font-size: 14px; white-space-collapse: preserve; background-color: rgb(42, 40, 42);&quot;&gt;&lt;font&gt;                0x00101007&lt;/font&gt;&lt;/span&gt;&lt;/div&gt;&lt;div&gt;&lt;span style=&quot;font-family: Consolas, &amp;quot;Courier New&amp;quot;, monospace; font-size: 14px; white-space-collapse: preserve; background-color: rgb(42, 40, 42);&quot;&gt;&lt;font&gt;                0x00102007&lt;/font&gt;&lt;/span&gt;&lt;/div&gt;" style="rounded=0;whiteSpace=wrap;html=1;strokeColor=none;fillColor=#2a282a;fontColor=default;align=left;spacingLeft=4;" parent="1" vertex="1">
          <mxGeometry x="280" y="305" width="340" height="240" as="geometry" />
        </mxCell>
        <mxCell id="ML8BMpae_mafnZTGD3tt-34" value="&lt;div style=&quot;font-family: Consolas, &amp;quot;Courier New&amp;quot;, monospace; font-size: 14px; line-height: 20px; white-space: pre;&quot;&gt;&lt;span style=&quot;text-wrap: wrap;&quot;&gt;&lt;font color=&quot;#b3ff66&quot;&gt;0x10afa8:&#x9;0x00000202  eflags&lt;/font&gt;&lt;/span&gt;&lt;/div&gt;&lt;div style=&quot;font-family: Consolas, &amp;quot;Courier New&amp;quot;, monospace; font-size: 14px; line-height: 20px; white-space: pre;&quot;&gt;&lt;div style=&quot;&quot;&gt;&lt;span style=&quot;text-wrap: wrap; background-color: initial;&quot;&gt;&lt;font color=&quot;#b3ff66&quot;&gt;                0x00000033  gs&lt;/font&gt;&lt;/span&gt;&lt;/div&gt;&lt;div style=&quot;&quot;&gt;&lt;span style=&quot;text-wrap: wrap; background-color: initial;&quot;&gt;&lt;font color=&quot;#b3ff66&quot;&gt;                0x00000033  fs&lt;/font&gt;&lt;/span&gt;&lt;/div&gt;&lt;div style=&quot;&quot;&gt;&lt;span style=&quot;text-wrap: wrap; background-color: initial;&quot;&gt;&lt;font color=&quot;#b3ff66&quot;&gt;                0x00000033  es&lt;/font&gt;&lt;/span&gt;&lt;/div&gt;&lt;span style=&quot;text-wrap: wrap;&quot;&gt;&lt;font color=&quot;#b3ff66&quot;&gt;0x10afb8:&#x9;0x00000033  ds&lt;/font&gt;&lt;/span&gt;&lt;/div&gt;&lt;div style=&quot;font-family: Consolas, &amp;quot;Courier New&amp;quot;, monospace; font-size: 14px; line-height: 20px; white-space: pre;&quot;&gt;&lt;span style=&quot;text-wrap: wrap;&quot;&gt;&lt;font color=&quot;#b3ff66&quot;&gt;                0x01ffffb0  edi&lt;/font&gt;&lt;/span&gt;&lt;/div&gt;&lt;div style=&quot;font-family: Consolas, &amp;quot;Courier New&amp;quot;, monospace; font-size: 14px; line-height: 20px; white-space: pre;&quot;&gt;&lt;span style=&quot;text-wrap: wrap;&quot;&gt;&lt;font color=&quot;#b3ff66&quot;&gt;                0x00000001  esi&lt;/font&gt;&lt;/span&gt;&lt;/div&gt;&lt;div style=&quot;font-family: Consolas, &amp;quot;Courier New&amp;quot;, monospace; font-size: 14px; line-height: 20px; white-space: pre;&quot;&gt;&lt;span style=&quot;text-wrap: wrap;&quot;&gt;&lt;font color=&quot;#b3ff66&quot;&gt;                0x01ffffc4  ebp&lt;br&gt;0x10afc8:&#x9;0x0010afdc  esp&lt;/font&gt;&lt;/span&gt;&lt;/div&gt;&lt;div style=&quot;font-family: Consolas, &amp;quot;Courier New&amp;quot;, monospace; font-size: 14px; line-height: 20px; white-space: pre;&quot;&gt;&lt;span style=&quot;text-wrap: wrap;&quot;&gt;&lt;font color=&quot;#b3ff66&quot;&gt;                0x000003e8  ebx&lt;/font&gt;&lt;/span&gt;&lt;/div&gt;&lt;div style=&quot;font-family: Consolas, &amp;quot;Courier New&amp;quot;, monospace; font-size: 14px; line-height: 20px; white-space: pre;&quot;&gt;&lt;span style=&quot;text-wrap: wrap;&quot;&gt;&lt;font color=&quot;#b3ff66&quot;&gt;                0x00000000  edx&lt;/font&gt;&lt;/span&gt;&lt;/div&gt;&lt;div style=&quot;font-family: Consolas, &amp;quot;Courier New&amp;quot;, monospace; font-size: 14px; line-height: 20px; white-space: pre;&quot;&gt;&lt;span style=&quot;text-wrap: wrap;&quot;&gt;&lt;font color=&quot;#b3ff66&quot;&gt;                0x00000000  ecx&lt;br&gt;0x10afd8:&#x9;0x00000000  eax&lt;/font&gt;&lt;/span&gt;&lt;/div&gt;&lt;div style=&quot;font-family: Consolas, &amp;quot;Courier New&amp;quot;, monospace; font-size: 14px; line-height: 20px; white-space: pre;&quot;&gt;&lt;span style=&quot;text-wrap: wrap;&quot;&gt;                &lt;b&gt;&lt;u&gt;0x01ff604e&lt;/u&gt;&lt;/b&gt;  return address&lt;/span&gt;&lt;/div&gt;&lt;div style=&quot;font-family: Consolas, &amp;quot;Courier New&amp;quot;, monospace; font-size: 14px; line-height: 20px; white-space: pre;&quot;&gt;&lt;span style=&quot;text-wrap: wrap;&quot;&gt;                0x0000003b&lt;/span&gt;&lt;/div&gt;&lt;div style=&quot;font-family: Consolas, &amp;quot;Courier New&amp;quot;, monospace; font-size: 14px; line-height: 20px; white-space: pre;&quot;&gt;&lt;span style=&quot;text-wrap: wrap;&quot;&gt;                0x00000001&lt;/span&gt;&lt;br&gt;&lt;/div&gt;" style="rounded=0;whiteSpace=wrap;html=1;strokeColor=none;fillColor=#2a282a;fontColor=default;labelBackgroundColor=none;align=left;verticalAlign=middle;fontFamily=Helvetica;fontSize=12;spacingLeft=4;" parent="1" vertex="1">
          <mxGeometry x="650" y="260" width="340" height="330" as="geometry" />
        </mxCell>
        <mxCell id="ML8BMpae_mafnZTGD3tt-38" value="" style="endArrow=none;html=1;rounded=0;" parent="1" target="ML8BMpae_mafnZTGD3tt-1" edge="1">
          <mxGeometry width="50" height="50" relative="1" as="geometry">
            <mxPoint y="220" as="sourcePoint" />
            <mxPoint x="830" y="220" as="targetPoint" />
          </mxGeometry>
        </mxCell>
        <mxCell id="ML8BMpae_mafnZTGD3tt-1" value="init_task(&lt;b&gt;&lt;u&gt;CPL = 3&lt;/u&gt;&lt;/b&gt;)" style="rounded=1;whiteSpace=wrap;html=1;fontFamily=Courier New;fillColor=#a20025;fontColor=#ffffff;strokeColor=#6F0000;" parent="1" vertex="1">
          <mxGeometry x="10" y="200" width="160" height="40" as="geometry" />
        </mxCell>
        <mxCell id="ML8BMpae_mafnZTGD3tt-39" value="调用 &lt;b&gt;&lt;u&gt;lcall&lt;/u&gt;&lt;/b&gt; 指令会压入 &lt;b&gt;&lt;u&gt;cs&lt;/u&gt;&lt;/b&gt; 和 &lt;b&gt;&lt;u&gt;eip&lt;/u&gt;&lt;/b&gt;，&lt;b&gt;&lt;u&gt;进入内核态&lt;/u&gt;&lt;/b&gt;" style="shape=note;whiteSpace=wrap;html=1;backgroundOutline=1;darkOpacity=0.05;size=16;fillColor=#f0a30a;fontColor=#000000;strokeColor=#BD7000;" parent="1" vertex="1">
          <mxGeometry x="300" y="250" width="270" height="40" as="geometry" />
        </mxCell>
        <mxCell id="ML8BMpae_mafnZTGD3tt-40" value="保存上下文环境" style="text;html=1;align=center;verticalAlign=middle;whiteSpace=wrap;rounded=0;" parent="1" vertex="1">
          <mxGeometry x="260" y="590" width="100" height="30" as="geometry" />
        </mxCell>
        <mxCell id="ML8BMpae_mafnZTGD3tt-43" style="edgeStyle=orthogonalEdgeStyle;rounded=0;orthogonalLoop=1;jettySize=auto;html=1;entryX=0;entryY=0.5;entryDx=0;entryDy=0;" parent="1" source="ML8BMpae_mafnZTGD3tt-41" target="ML8BMpae_mafnZTGD3tt-42" edge="1">
          <mxGeometry relative="1" as="geometry" />
        </mxCell>
        <mxCell id="ML8BMpae_mafnZTGD3tt-41" value="&lt;div style=&quot;text-align: left; font-family: Consolas, &amp;quot;Courier New&amp;quot;, monospace; font-size: 14px; line-height: 20px; white-space: pre;&quot;&gt;&lt;span style=&quot;text-wrap: wrap;&quot;&gt;0x10afa8:&#x9;0x00000202  eflags&lt;/span&gt;&lt;/div&gt;&lt;div style=&quot;text-align: left; font-family: Consolas, &amp;quot;Courier New&amp;quot;, monospace; font-size: 14px; line-height: 20px; white-space: pre;&quot;&gt;&lt;div&gt;&lt;span style=&quot;text-wrap: wrap; background-color: initial;&quot;&gt;                0x00000033  gs&lt;/span&gt;&lt;/div&gt;&lt;div&gt;&lt;span style=&quot;text-wrap: wrap; background-color: initial;&quot;&gt;                0x00000033  fs&lt;/span&gt;&lt;/div&gt;&lt;div&gt;&lt;span style=&quot;text-wrap: wrap; background-color: initial;&quot;&gt;                0x00000033  es&lt;/span&gt;&lt;/div&gt;&lt;/div&gt;" style="rounded=0;whiteSpace=wrap;html=1;align=left;verticalAlign=middle;spacingLeft=4;fontFamily=Helvetica;fontSize=12;fontColor=default;fillColor=#2a282a;strokeColor=none;" parent="1" vertex="1">
          <mxGeometry x="280" y="650" width="302" height="130" as="geometry" />
        </mxCell>
        <mxCell id="ML8BMpae_mafnZTGD3tt-42" value="&lt;div style=&quot;text-align: left; font-family: Consolas, &amp;quot;Courier New&amp;quot;, monospace; font-size: 14px; line-height: 20px; white-space: pre;&quot;&gt;&lt;span style=&quot;text-wrap: wrap; background-color: rgb(42, 40, 42);&quot;&gt;0x10afa4:&#x9;0x0010afa8  esp&lt;/span&gt;&lt;/div&gt;&lt;div style=&quot;text-align: left; font-family: Consolas, &amp;quot;Courier New&amp;quot;, monospace; font-size: 14px; line-height: 20px; white-space: pre;&quot;&gt;&lt;span style=&quot;text-wrap: wrap; background-color: rgb(42, 40, 42);&quot;&gt;                0x00000202&lt;/span&gt;&lt;/div&gt;&lt;div style=&quot;text-align: left; font-family: Consolas, &amp;quot;Courier New&amp;quot;, monospace; font-size: 14px; line-height: 20px; white-space: pre;&quot;&gt;&lt;span style=&quot;text-wrap: wrap; background-color: rgb(42, 40, 42);&quot;&gt;                0x00000033&lt;/span&gt;&lt;/div&gt;&lt;div style=&quot;text-align: left; font-family: Consolas, &amp;quot;Courier New&amp;quot;, monospace; font-size: 14px; line-height: 20px; white-space: pre;&quot;&gt;&lt;span style=&quot;text-wrap: wrap; background-color: rgb(42, 40, 42);&quot;&gt;                0x00000033&lt;/span&gt;&lt;br&gt;&lt;/div&gt;" style="rounded=0;whiteSpace=wrap;html=1;align=left;verticalAlign=middle;spacingLeft=4;fontFamily=Helvetica;fontSize=12;fontColor=default;fillColor=#2a282a;strokeColor=none;" parent="1" vertex="1">
          <mxGeometry x="650" y="650" width="260" height="130" as="geometry" />
        </mxCell>
        <mxCell id="ML8BMpae_mafnZTGD3tt-44" value="&lt;font style=&quot;font-size: 12px;&quot;&gt;将&amp;nbsp;&lt;span style=&quot;font-family: Consolas, &amp;quot;Courier New&amp;quot;, monospace; white-space: pre; color: rgb(135, 195, 255);&quot;&gt;syscall_frame_t&lt;/span&gt;&lt;span style=&quot;background-color: rgb(24, 24, 24); color: rgb(214, 214, 221); font-family: Consolas, &amp;quot;Courier New&amp;quot;, monospace; white-space: pre;&quot;&gt; &lt;/span&gt;&lt;span style=&quot;font-family: Consolas, &amp;quot;Courier New&amp;quot;, monospace; white-space: pre; color: rgb(131, 214, 197);&quot;&gt;*&lt;/span&gt;&lt;span style=&quot;color: rgb(214, 214, 221); font-family: Consolas, &amp;quot;Courier New&amp;quot;, monospace; white-space: pre; font-style: italic;&quot;&gt;frame &lt;/span&gt;&lt;span style=&quot;color: rgb(214, 214, 221); font-family: Consolas, &amp;quot;Courier New&amp;quot;, monospace; white-space: pre;&quot;&gt;压栈&lt;/span&gt;&lt;/font&gt;" style="text;html=1;align=center;verticalAlign=middle;whiteSpace=wrap;rounded=0;" parent="1" vertex="1">
          <mxGeometry x="260" y="790" width="210" height="30" as="geometry" />
        </mxCell>
        <mxCell id="ML8BMpae_mafnZTGD3tt-55" style="edgeStyle=orthogonalEdgeStyle;rounded=0;orthogonalLoop=1;jettySize=auto;html=1;entryX=0;entryY=0.5;entryDx=0;entryDy=0;" parent="1" source="ML8BMpae_mafnZTGD3tt-45" target="ML8BMpae_mafnZTGD3tt-54" edge="1">
          <mxGeometry relative="1" as="geometry" />
        </mxCell>
        <mxCell id="ML8BMpae_mafnZTGD3tt-45" value="frame-&amp;gt;id" style="rounded=1;whiteSpace=wrap;html=1;fontFamily=Courier New;fillColor=#647687;fontColor=#ffffff;strokeColor=#314354;" parent="1" vertex="1">
          <mxGeometry x="520" y="840" width="90" height="30" as="geometry" />
        </mxCell>
        <mxCell id="ML8BMpae_mafnZTGD3tt-53" value="" style="edgeStyle=orthogonalEdgeStyle;rounded=0;orthogonalLoop=1;jettySize=auto;html=1;" parent="1" source="ML8BMpae_mafnZTGD3tt-50" target="ML8BMpae_mafnZTGD3tt-45" edge="1">
          <mxGeometry relative="1" as="geometry" />
        </mxCell>
        <mxCell id="ML8BMpae_mafnZTGD3tt-50" value="&lt;div style=&quot;line-height: 36px; white-space: pre;&quot;&gt;&lt;font style=&quot;font-size: 12px;&quot;&gt;syscall_handler_table&lt;/font&gt;&lt;/div&gt;" style="rounded=1;whiteSpace=wrap;html=1;fontFamily=Courier New;fontColor=#ffffff;fontStyle=0;labelBackgroundColor=none;fillColor=#d80073;strokeColor=#A50040;" parent="1" vertex="1">
          <mxGeometry x="300" y="840" width="180" height="30" as="geometry" />
        </mxCell>
        <mxCell id="ML8BMpae_mafnZTGD3tt-54" value="handler" style="rounded=1;whiteSpace=wrap;html=1;fontFamily=Courier New;fillColor=#a20025;fontColor=#ffffff;strokeColor=#6F0000;" parent="1" vertex="1">
          <mxGeometry x="660" y="840" width="90" height="30" as="geometry" />
        </mxCell>
        <mxCell id="ML8BMpae_mafnZTGD3tt-56" value="&lt;div style=&quot;color: rgb(214, 214, 221); font-size: 12px; line-height: 36px; white-space: pre;&quot;&gt;handler(&lt;span style=&quot;font-style: italic; font-size: 12px;&quot;&gt;frame&lt;/span&gt;-&amp;gt;&lt;span style=&quot;color: rgb(175, 156, 255); font-size: 12px;&quot;&gt;arg0&lt;/span&gt;, &lt;span style=&quot;font-style: italic; font-size: 12px;&quot;&gt;frame&lt;/span&gt;-&amp;gt;&lt;span style=&quot;color: rgb(175, 156, 255); font-size: 12px;&quot;&gt;arg1&lt;/span&gt;, &lt;span style=&quot;font-style: italic; font-size: 12px;&quot;&gt;frame&lt;/span&gt;-&amp;gt;&lt;span style=&quot;color: rgb(175, 156, 255); font-size: 12px;&quot;&gt;arg2&lt;/span&gt;, &lt;span style=&quot;font-style: italic; font-size: 12px;&quot;&gt;frame&lt;/span&gt;-&amp;gt;&lt;span style=&quot;color: rgb(175, 156, 255); font-size: 12px;&quot;&gt;arg3&lt;/span&gt;)&lt;/div&gt;" style="rounded=1;whiteSpace=wrap;html=1;fontFamily=Courier New;fillColor=#18141d;fontColor=#ffffff;strokeColor=#F0F0F0;fontSize=12;labelBackgroundColor=default;" parent="1" vertex="1">
          <mxGeometry x="300" y="890" width="450" height="40" as="geometry" />
        </mxCell>
        <mxCell id="ML8BMpae_mafnZTGD3tt-59" value="调用函数" style="text;html=1;align=center;verticalAlign=middle;whiteSpace=wrap;rounded=0;" parent="1" vertex="1">
          <mxGeometry x="260" y="940" width="60" height="30" as="geometry" />
        </mxCell>
        <mxCell id="ML8BMpae_mafnZTGD3tt-62" value="" style="edgeStyle=orthogonalEdgeStyle;rounded=0;orthogonalLoop=1;jettySize=auto;html=1;" parent="1" source="ML8BMpae_mafnZTGD3tt-60" target="ML8BMpae_mafnZTGD3tt-61" edge="1">
          <mxGeometry relative="1" as="geometry" />
        </mxCell>
        <mxCell id="ML8BMpae_mafnZTGD3tt-60" value="&lt;div style=&quot;text-align: left; font-family: Consolas, &amp;quot;Courier New&amp;quot;, monospace; font-size: 14px; line-height: 20px; white-space: pre;&quot;&gt;&lt;span style=&quot;text-wrap: wrap; background-color: rgb(42, 40, 42);&quot;&gt;0x10afa4:&#x9;0x0010afa8  esp&lt;/span&gt;&lt;/div&gt;&lt;div style=&quot;text-align: left; font-family: Consolas, &amp;quot;Courier New&amp;quot;, monospace; font-size: 14px; line-height: 20px; white-space: pre;&quot;&gt;&lt;span style=&quot;text-wrap: wrap; background-color: rgb(42, 40, 42);&quot;&gt;                0x00000202&lt;/span&gt;&lt;/div&gt;&lt;div style=&quot;text-align: left; font-family: Consolas, &amp;quot;Courier New&amp;quot;, monospace; font-size: 14px; line-height: 20px; white-space: pre;&quot;&gt;&lt;span style=&quot;text-wrap: wrap; background-color: rgb(42, 40, 42);&quot;&gt;                0x00000033&lt;/span&gt;&lt;/div&gt;&lt;div style=&quot;text-align: left; font-family: Consolas, &amp;quot;Courier New&amp;quot;, monospace; font-size: 14px; line-height: 20px; white-space: pre;&quot;&gt;&lt;span style=&quot;text-wrap: wrap; background-color: rgb(42, 40, 42);&quot;&gt;                0x00000033&lt;/span&gt;&lt;br&gt;&lt;/div&gt;" style="rounded=0;whiteSpace=wrap;html=1;align=left;verticalAlign=middle;spacingLeft=4;fontFamily=Helvetica;fontSize=12;fontColor=default;fillColor=#2a282a;strokeColor=none;" parent="1" vertex="1">
          <mxGeometry x="280" y="1000" width="260" height="130" as="geometry" />
        </mxCell>
        <mxCell id="ML8BMpae_mafnZTGD3tt-61" value="&lt;div style=&quot;text-align: left; font-family: Consolas, &amp;quot;Courier New&amp;quot;, monospace; font-size: 14px; line-height: 20px; white-space: pre;&quot;&gt;&lt;div style=&quot;line-height: 20px;&quot;&gt;&lt;span style=&quot;text-wrap: wrap; background-color: rgb(42, 40, 42);&quot;&gt;&lt;font color=&quot;#ff6666&quot;&gt;&lt;strike&gt;0x10afa4:       0x0010afa8  esp&lt;/strike&gt;&lt;/font&gt;&lt;/span&gt;&lt;/div&gt;&lt;div style=&quot;line-height: 20px;&quot;&gt;&lt;span style=&quot;background-color: rgb(42, 40, 42); text-wrap: wrap;&quot;&gt;0x10afa8:&lt;/span&gt;&lt;span style=&quot;text-wrap: wrap; background-color: rgb(42, 40, 42);&quot;&gt;       0x00000202&lt;/span&gt;&lt;/div&gt;&lt;div style=&quot;line-height: 20px;&quot;&gt;&lt;span style=&quot;text-wrap: wrap; background-color: rgb(42, 40, 42);&quot;&gt;                0x00000033&lt;/span&gt;&lt;/div&gt;&lt;div style=&quot;line-height: 20px;&quot;&gt;&lt;span style=&quot;text-wrap: wrap; background-color: rgb(42, 40, 42);&quot;&gt;                0x00000033&lt;/span&gt;&lt;/div&gt;&lt;/div&gt;" style="rounded=0;whiteSpace=wrap;html=1;align=left;verticalAlign=middle;spacingLeft=4;fontFamily=Helvetica;fontSize=12;fontColor=default;fillColor=#2a282a;strokeColor=none;" parent="1" vertex="1">
          <mxGeometry x="650" y="1015" width="260" height="100" as="geometry" />
        </mxCell>
        <mxCell id="ML8BMpae_mafnZTGD3tt-63" value="" style="endArrow=none;html=1;rounded=0;" parent="1" edge="1">
          <mxGeometry width="50" height="50" relative="1" as="geometry">
            <mxPoint y="1170" as="sourcePoint" />
            <mxPoint x="1080" y="1170" as="targetPoint" />
          </mxGeometry>
        </mxCell>
        <mxCell id="ML8BMpae_mafnZTGD3tt-64" value="" style="rounded=0;whiteSpace=wrap;html=1;strokeColor=#FF6666;fillColor=none;strokeWidth=2;dashed=1;" parent="1" vertex="1">
          <mxGeometry x="770" y="675" width="140" height="20" as="geometry" />
        </mxCell>
        <mxCell id="ML8BMpae_mafnZTGD3tt-66" style="edgeStyle=orthogonalEdgeStyle;rounded=0;orthogonalLoop=1;jettySize=auto;html=1;entryX=1.001;entryY=0.472;entryDx=0;entryDy=0;entryPerimeter=0;exitX=0.5;exitY=0;exitDx=0;exitDy=0;fillColor=#e51400;strokeColor=#FF6666;strokeWidth=2;dashed=1;" parent="1" source="ML8BMpae_mafnZTGD3tt-65" target="ML8BMpae_mafnZTGD3tt-64" edge="1">
          <mxGeometry relative="1" as="geometry">
            <Array as="points">
              <mxPoint x="690" y="240" />
              <mxPoint x="1020" y="240" />
              <mxPoint x="1020" y="684" />
            </Array>
          </mxGeometry>
        </mxCell>
        <mxCell id="ML8BMpae_mafnZTGD3tt-65" value="" style="rounded=0;whiteSpace=wrap;html=1;strokeColor=#FF6666;fillColor=none;strokeWidth=2;dashed=1;" parent="1" vertex="1">
          <mxGeometry x="650" y="260" width="80" height="30" as="geometry" />
        </mxCell>
        <mxCell id="ML8BMpae_mafnZTGD3tt-69" style="edgeStyle=orthogonalEdgeStyle;rounded=0;orthogonalLoop=1;jettySize=auto;html=1;entryX=0;entryY=0.5;entryDx=0;entryDy=0;" parent="1" source="ML8BMpae_mafnZTGD3tt-67" target="ML8BMpae_mafnZTGD3tt-68" edge="1">
          <mxGeometry relative="1" as="geometry" />
        </mxCell>
        <mxCell id="ML8BMpae_mafnZTGD3tt-67" value="&lt;div style=&quot;text-align: left; font-family: Consolas, &amp;quot;Courier New&amp;quot;, monospace; font-size: 14px; line-height: 20px; white-space: pre;&quot;&gt;&lt;span style=&quot;text-wrap: wrap; background-color: rgb(42, 40, 42);&quot;&gt;0x10afa8:&#x9;0x00000202&lt;/span&gt;&lt;/div&gt;&lt;div style=&quot;text-align: left; font-family: Consolas, &amp;quot;Courier New&amp;quot;, monospace; font-size: 14px; line-height: 20px; white-space: pre;&quot;&gt;&lt;span style=&quot;text-wrap: wrap; background-color: rgb(42, 40, 42);&quot;&gt;                0x00000033&lt;/span&gt;&lt;/div&gt;&lt;div style=&quot;text-align: left; font-family: Consolas, &amp;quot;Courier New&amp;quot;, monospace; font-size: 14px; line-height: 20px; white-space: pre;&quot;&gt;&lt;span style=&quot;text-wrap: wrap; background-color: rgb(42, 40, 42);&quot;&gt;                0x00000033&lt;/span&gt;&lt;/div&gt;&lt;div style=&quot;text-align: left; font-family: Consolas, &amp;quot;Courier New&amp;quot;, monospace; font-size: 14px; line-height: 20px; white-space: pre;&quot;&gt;&lt;span style=&quot;text-wrap: wrap; background-color: rgb(42, 40, 42);&quot;&gt;                0x00000033&lt;br&gt;0x10afb8:&#x9;0x00000033&lt;/span&gt;&lt;/div&gt;&lt;div style=&quot;text-align: left; font-family: Consolas, &amp;quot;Courier New&amp;quot;, monospace; font-size: 14px; line-height: 20px; white-space: pre;&quot;&gt;&lt;span style=&quot;text-wrap: wrap; background-color: rgb(42, 40, 42);&quot;&gt;                0x01ffffb0&lt;/span&gt;&lt;/div&gt;&lt;div style=&quot;text-align: left; font-family: Consolas, &amp;quot;Courier New&amp;quot;, monospace; font-size: 14px; line-height: 20px; white-space: pre;&quot;&gt;&lt;span style=&quot;text-wrap: wrap; background-color: rgb(42, 40, 42);&quot;&gt;                0x00000001&lt;/span&gt;&lt;/div&gt;&lt;div style=&quot;text-align: left; font-family: Consolas, &amp;quot;Courier New&amp;quot;, monospace; font-size: 14px; line-height: 20px; white-space: pre;&quot;&gt;&lt;span style=&quot;text-wrap: wrap; background-color: rgb(42, 40, 42);&quot;&gt;                0x01ffffc4&lt;br&gt;0x10afc8:&#x9;0x0010afdc&lt;/span&gt;&lt;/div&gt;&lt;div style=&quot;text-align: left; font-family: Consolas, &amp;quot;Courier New&amp;quot;, monospace; font-size: 14px; line-height: 20px; white-space: pre;&quot;&gt;&lt;span style=&quot;text-wrap: wrap; background-color: rgb(42, 40, 42);&quot;&gt;                0x000003e8&lt;/span&gt;&lt;/div&gt;&lt;div style=&quot;text-align: left; font-family: Consolas, &amp;quot;Courier New&amp;quot;, monospace; font-size: 14px; line-height: 20px; white-space: pre;&quot;&gt;&lt;span style=&quot;text-wrap: wrap; background-color: rgb(42, 40, 42);&quot;&gt;                0x00000000&lt;/span&gt;&lt;/div&gt;&lt;div style=&quot;text-align: left; font-family: Consolas, &amp;quot;Courier New&amp;quot;, monospace; font-size: 14px; line-height: 20px; white-space: pre;&quot;&gt;&lt;span style=&quot;text-wrap: wrap; background-color: rgb(42, 40, 42);&quot;&gt;                0x00000000&lt;br&gt;0x10afd8:&#x9;0x00000000&lt;/span&gt;&lt;/div&gt;&lt;div style=&quot;text-align: left; font-family: Consolas, &amp;quot;Courier New&amp;quot;, monospace; font-size: 14px; line-height: 20px; white-space: pre;&quot;&gt;&lt;span style=&quot;text-wrap: wrap; background-color: rgb(42, 40, 42);&quot;&gt;                &lt;b&gt;&lt;u&gt;&lt;font color=&quot;#ffff99&quot;&gt;0x01ff604e&lt;/font&gt;&lt;/u&gt;&lt;/b&gt;&lt;/span&gt;&lt;/div&gt;&lt;div style=&quot;text-align: left; font-family: Consolas, &amp;quot;Courier New&amp;quot;, monospace; font-size: 14px; line-height: 20px; white-space: pre;&quot;&gt;&lt;span style=&quot;text-wrap: wrap; background-color: rgb(42, 40, 42);&quot;&gt;                0x0000003b&lt;/span&gt;&lt;/div&gt;&lt;div style=&quot;text-align: left; font-family: Consolas, &amp;quot;Courier New&amp;quot;, monospace; font-size: 14px; line-height: 20px; white-space: pre;&quot;&gt;&lt;span style=&quot;text-wrap: wrap; background-color: rgb(42, 40, 42);&quot;&gt;                0x00000001&lt;/span&gt;&lt;br&gt;&lt;/div&gt;" style="rounded=0;whiteSpace=wrap;html=1;align=left;verticalAlign=middle;spacingLeft=8;fontFamily=Helvetica;fontSize=12;fontColor=default;fillColor=#2a282a;strokeColor=none;" parent="1" vertex="1">
          <mxGeometry x="280" y="1190" width="250" height="340" as="geometry" />
        </mxCell>
        <mxCell id="ML8BMpae_mafnZTGD3tt-68" value="&lt;div style=&quot;text-align: left; font-family: Consolas, &amp;quot;Courier New&amp;quot;, monospace; font-size: 14px; line-height: 20px; white-space: pre;&quot;&gt;&lt;span style=&quot;text-wrap: wrap; background-color: rgb(42, 40, 42);&quot;&gt;0x10afdc:&#x9;0x01ff604e  eip&lt;/span&gt;&lt;/div&gt;&lt;div style=&quot;text-align: left; font-family: Consolas, &amp;quot;Courier New&amp;quot;, monospace; font-size: 14px; line-height: 20px; white-space: pre;&quot;&gt;&lt;span style=&quot;text-wrap: wrap; background-color: rgb(42, 40, 42);&quot;&gt;                0x0000003b  cs&lt;/span&gt;&lt;/div&gt;&lt;div style=&quot;text-align: left; font-family: Consolas, &amp;quot;Courier New&amp;quot;, monospace; font-size: 14px; line-height: 20px; white-space: pre;&quot;&gt;&lt;span style=&quot;text-wrap: wrap; background-color: rgb(42, 40, 42);&quot;&gt;                &lt;font color=&quot;#ff6666&quot;&gt;&lt;strike&gt;0x00000001  id&lt;/strike&gt;&lt;/font&gt;&lt;/span&gt;&lt;/div&gt;&lt;div style=&quot;text-align: left; font-family: Consolas, &amp;quot;Courier New&amp;quot;, monospace; font-size: 14px; line-height: 20px; white-space: pre;&quot;&gt;&lt;span style=&quot;text-wrap: wrap; background-color: rgb(42, 40, 42);&quot;&gt;                &lt;font color=&quot;#ff6666&quot;&gt;&lt;strike&gt;0x000003e8  arg0&lt;/strike&gt;&lt;/font&gt;&lt;br&gt;0x10afec:&#x9;&lt;font color=&quot;#ff6666&quot;&gt;&lt;strike&gt;0x00000000  arg1&lt;/strike&gt;&lt;/font&gt;&lt;/span&gt;&lt;/div&gt;&lt;div style=&quot;text-align: left; font-family: Consolas, &amp;quot;Courier New&amp;quot;, monospace; font-size: 14px; line-height: 20px; white-space: pre;&quot;&gt;&lt;span style=&quot;text-wrap: wrap; background-color: rgb(42, 40, 42);&quot;&gt;                &lt;font color=&quot;#ff6666&quot;&gt;&lt;strike&gt;0x00000000  arg2&lt;/strike&gt;&lt;/font&gt;&lt;/span&gt;&lt;/div&gt;&lt;div style=&quot;text-align: left; font-family: Consolas, &amp;quot;Courier New&amp;quot;, monospace; font-size: 14px; line-height: 20px; white-space: pre;&quot;&gt;&lt;span style=&quot;text-wrap: wrap; background-color: rgb(42, 40, 42);&quot;&gt;                &lt;font style=&quot;&quot; color=&quot;#ff6666&quot;&gt;&lt;strike&gt;0x00000000  arg3&lt;/strike&gt;&lt;/font&gt;&lt;/span&gt;&lt;/div&gt;&lt;div style=&quot;text-align: left; font-family: Consolas, &amp;quot;Courier New&amp;quot;, monospace; font-size: 14px; line-height: 20px; white-space: pre;&quot;&gt;&lt;span style=&quot;text-wrap: wrap; background-color: rgb(42, 40, 42);&quot;&gt;                0x01ffff94&lt;br&gt;0x10affc:&#x9;0x00000033&lt;/span&gt;&lt;/div&gt;&lt;div style=&quot;text-align: left; font-family: Consolas, &amp;quot;Courier New&amp;quot;, monospace; font-size: 14px; line-height: 20px; white-space: pre;&quot;&gt;&lt;span style=&quot;text-wrap: wrap; background-color: rgb(42, 40, 42);&quot;&gt;                0x00100027&lt;/span&gt;&lt;/div&gt;&lt;div style=&quot;text-align: left; font-family: Consolas, &amp;quot;Courier New&amp;quot;, monospace; font-size: 14px; line-height: 20px; white-space: pre;&quot;&gt;&lt;span style=&quot;text-wrap: wrap; background-color: rgb(42, 40, 42);&quot;&gt;                0x00101007&lt;/span&gt;&lt;/div&gt;&lt;div style=&quot;text-align: left; font-family: Consolas, &amp;quot;Courier New&amp;quot;, monospace; font-size: 14px; line-height: 20px; white-space: pre;&quot;&gt;&lt;span style=&quot;text-wrap: wrap; background-color: rgb(42, 40, 42);&quot;&gt;                0x00102007&lt;br&gt;0x10b00c:&#x9;0x00103007&lt;/span&gt;&lt;/div&gt;&lt;div style=&quot;text-align: left; font-family: Consolas, &amp;quot;Courier New&amp;quot;, monospace; font-size: 14px; line-height: 20px; white-space: pre;&quot;&gt;&lt;span style=&quot;text-wrap: wrap; background-color: rgb(42, 40, 42);&quot;&gt;                0x00104007&lt;/span&gt;&lt;/div&gt;&lt;div style=&quot;text-align: left; font-family: Consolas, &amp;quot;Courier New&amp;quot;, monospace; font-size: 14px; line-height: 20px; white-space: pre;&quot;&gt;&lt;span style=&quot;text-wrap: wrap; background-color: rgb(42, 40, 42);&quot;&gt;                0x00105007&lt;/span&gt;&lt;/div&gt;&lt;div style=&quot;text-align: left; font-family: Consolas, &amp;quot;Courier New&amp;quot;, monospace; font-size: 14px; line-height: 20px; white-space: pre;&quot;&gt;&lt;span style=&quot;text-wrap: wrap; background-color: rgb(42, 40, 42);&quot;&gt;                0x00106007&lt;/span&gt;&lt;br&gt;&lt;/div&gt;" style="rounded=0;whiteSpace=wrap;html=1;align=left;verticalAlign=middle;spacingLeft=8;fontFamily=Helvetica;fontSize=12;fontColor=default;fillColor=#2a282a;strokeColor=none;" parent="1" vertex="1">
          <mxGeometry x="660" y="1190" width="340" height="340" as="geometry" />
        </mxCell>
        <mxCell id="ML8BMpae_mafnZTGD3tt-72" value="" style="endArrow=none;html=1;rounded=0;" parent="1" edge="1">
          <mxGeometry width="50" height="50" relative="1" as="geometry">
            <mxPoint y="1600" as="sourcePoint" />
            <mxPoint x="1080" y="1600" as="targetPoint" />
          </mxGeometry>
        </mxCell>
        <mxCell id="ML8BMpae_mafnZTGD3tt-74" value="恢复栈结构" style="text;html=1;align=center;verticalAlign=middle;whiteSpace=wrap;rounded=0;" parent="1" vertex="1">
          <mxGeometry x="260" y="1139" width="80" height="30" as="geometry" />
        </mxCell>
        <mxCell id="ML8BMpae_mafnZTGD3tt-75" value="还原上下文环境并返回" style="text;html=1;align=center;verticalAlign=middle;whiteSpace=wrap;rounded=0;" parent="1" vertex="1">
          <mxGeometry x="260" y="1570" width="140" height="30" as="geometry" />
        </mxCell>
        <mxCell id="ML8BMpae_mafnZTGD3tt-76" value="调用&amp;nbsp;&lt;b style=&quot;text-decoration-line: underline;&quot;&gt;retf&lt;/b&gt;&amp;nbsp;指令会弹出&amp;nbsp;&lt;b&gt;&lt;u&gt;cs&lt;/u&gt;&amp;nbsp;&lt;/b&gt;和 &lt;b&gt;&lt;u&gt;eip&lt;/u&gt;&lt;/b&gt;，&lt;b&gt;&lt;u&gt;重新回到&lt;/u&gt;&lt;/b&gt;&lt;b&gt;&lt;u&gt;用户态&lt;/u&gt;&lt;/b&gt;" style="shape=note;whiteSpace=wrap;html=1;backgroundOutline=1;darkOpacity=0.05;size=16;fillColor=#f0a30a;fontColor=#000000;strokeColor=#BD7000;" parent="1" vertex="1">
          <mxGeometry x="522" y="1550" width="305" height="40" as="geometry" />
        </mxCell>
      </root>
    </mxGraphModel>
  </diagram>
  <diagram id="_sz6PqLMgzYlnDDp0kld" name="FORK">
    <mxGraphModel dx="447" dy="264" grid="1" gridSize="10" guides="1" tooltips="1" connect="1" arrows="1" fold="1" page="1" pageScale="1" pageWidth="827" pageHeight="1169" math="0" shadow="0">
      <root>
        <mxCell id="0" />
        <mxCell id="1" parent="0" />
        <mxCell id="vsx25Bqa6KlZ1nPeIGmI-4" value="" style="edgeStyle=orthogonalEdgeStyle;rounded=0;orthogonalLoop=1;jettySize=auto;html=1;" edge="1" parent="1" source="vsx25Bqa6KlZ1nPeIGmI-1" target="vsx25Bqa6KlZ1nPeIGmI-2">
          <mxGeometry relative="1" as="geometry" />
        </mxCell>
        <mxCell id="vsx25Bqa6KlZ1nPeIGmI-1" value="parent task" style="rounded=1;whiteSpace=wrap;html=1;fontFamily=Courier New;fillColor=#1ba1e2;fontColor=#ffffff;strokeColor=#006EAF;" vertex="1" parent="1">
          <mxGeometry x="540" y="20" width="110" height="40" as="geometry" />
        </mxCell>
        <mxCell id="vsx25Bqa6KlZ1nPeIGmI-5" value="" style="edgeStyle=orthogonalEdgeStyle;rounded=0;orthogonalLoop=1;jettySize=auto;html=1;" edge="1" parent="1" source="vsx25Bqa6KlZ1nPeIGmI-2" target="vsx25Bqa6KlZ1nPeIGmI-3">
          <mxGeometry relative="1" as="geometry" />
        </mxCell>
        <mxCell id="vsx25Bqa6KlZ1nPeIGmI-7" style="edgeStyle=orthogonalEdgeStyle;rounded=0;orthogonalLoop=1;jettySize=auto;html=1;entryX=0;entryY=0.5;entryDx=0;entryDy=0;" edge="1" parent="1" source="vsx25Bqa6KlZ1nPeIGmI-2" target="vsx25Bqa6KlZ1nPeIGmI-6">
          <mxGeometry relative="1" as="geometry" />
        </mxCell>
        <mxCell id="vsx25Bqa6KlZ1nPeIGmI-12" value="" style="edgeStyle=orthogonalEdgeStyle;rounded=0;orthogonalLoop=1;jettySize=auto;html=1;dashed=1;" edge="1" parent="1" source="vsx25Bqa6KlZ1nPeIGmI-2" target="vsx25Bqa6KlZ1nPeIGmI-11">
          <mxGeometry relative="1" as="geometry" />
        </mxCell>
        <mxCell id="vsx25Bqa6KlZ1nPeIGmI-2" value="fork()" style="rounded=1;whiteSpace=wrap;html=1;fontFamily=Courier New;fillColor=#d80073;fontColor=#ffffff;strokeColor=#A50040;" vertex="1" parent="1">
          <mxGeometry x="555" y="100" width="80" height="40" as="geometry" />
        </mxCell>
        <mxCell id="vsx25Bqa6KlZ1nPeIGmI-100" value="" style="edgeStyle=orthogonalEdgeStyle;rounded=0;orthogonalLoop=1;jettySize=auto;html=1;" edge="1" parent="1" source="vsx25Bqa6KlZ1nPeIGmI-3" target="vsx25Bqa6KlZ1nPeIGmI-99">
          <mxGeometry relative="1" as="geometry" />
        </mxCell>
        <mxCell id="vsx25Bqa6KlZ1nPeIGmI-3" value="sleep()" style="rounded=1;whiteSpace=wrap;html=1;fontFamily=Courier New;fillColor=#1ba1e2;fontColor=#ffffff;strokeColor=#006EAF;" vertex="1" parent="1">
          <mxGeometry x="555" y="290" width="80" height="40" as="geometry" />
        </mxCell>
        <mxCell id="vsx25Bqa6KlZ1nPeIGmI-6" value="child task" style="rounded=1;whiteSpace=wrap;html=1;fontFamily=Courier New;fillColor=#6a00ff;fontColor=#ffffff;strokeColor=#3700CC;" vertex="1" parent="1">
          <mxGeometry x="705" y="100" width="110" height="40" as="geometry" />
        </mxCell>
        <mxCell id="vsx25Bqa6KlZ1nPeIGmI-10" value="FORK实现的基本流程" style="text;html=1;align=center;verticalAlign=middle;whiteSpace=wrap;rounded=0;fontSize=16;" vertex="1" parent="1">
          <mxGeometry x="340" y="20" width="170" height="40" as="geometry" />
        </mxCell>
        <mxCell id="vsx25Bqa6KlZ1nPeIGmI-14" value="" style="edgeStyle=orthogonalEdgeStyle;rounded=0;orthogonalLoop=1;jettySize=auto;html=1;" edge="1" parent="1" source="vsx25Bqa6KlZ1nPeIGmI-11" target="vsx25Bqa6KlZ1nPeIGmI-13">
          <mxGeometry relative="1" as="geometry" />
        </mxCell>
        <mxCell id="vsx25Bqa6KlZ1nPeIGmI-11" value="syscall(SYS_NR_FORK)" style="rounded=1;whiteSpace=wrap;html=1;fontFamily=Courier New;fillColor=#a20025;fontColor=#ffffff;strokeColor=#6F0000;" vertex="1" parent="1">
          <mxGeometry x="340" y="100" width="170" height="40" as="geometry" />
        </mxCell>
        <mxCell id="vsx25Bqa6KlZ1nPeIGmI-16" value="" style="edgeStyle=orthogonalEdgeStyle;rounded=0;orthogonalLoop=1;jettySize=auto;html=1;" edge="1" parent="1" source="vsx25Bqa6KlZ1nPeIGmI-13" target="vsx25Bqa6KlZ1nPeIGmI-15">
          <mxGeometry relative="1" as="geometry" />
        </mxCell>
        <mxCell id="vsx25Bqa6KlZ1nPeIGmI-13" value="alloc_task()" style="rounded=1;whiteSpace=wrap;html=1;fontFamily=Courier New;fillColor=#647687;fontColor=#ffffff;strokeColor=#314354;" vertex="1" parent="1">
          <mxGeometry x="370" y="170" width="110" height="40" as="geometry" />
        </mxCell>
        <mxCell id="vsx25Bqa6KlZ1nPeIGmI-18" style="edgeStyle=orthogonalEdgeStyle;rounded=0;orthogonalLoop=1;jettySize=auto;html=1;entryX=0.5;entryY=0;entryDx=0;entryDy=0;" edge="1" parent="1" source="vsx25Bqa6KlZ1nPeIGmI-15" target="vsx25Bqa6KlZ1nPeIGmI-17">
          <mxGeometry relative="1" as="geometry" />
        </mxCell>
        <mxCell id="vsx25Bqa6KlZ1nPeIGmI-15" value="task_init()" style="rounded=1;whiteSpace=wrap;html=1;fontFamily=Courier New;fillColor=#647687;fontColor=#ffffff;strokeColor=#314354;" vertex="1" parent="1">
          <mxGeometry x="370" y="250" width="110" height="40" as="geometry" />
        </mxCell>
        <mxCell id="vsx25Bqa6KlZ1nPeIGmI-20" value="" style="edgeStyle=orthogonalEdgeStyle;rounded=0;orthogonalLoop=1;jettySize=auto;html=1;" edge="1" parent="1" source="vsx25Bqa6KlZ1nPeIGmI-17" target="vsx25Bqa6KlZ1nPeIGmI-19">
          <mxGeometry relative="1" as="geometry" />
        </mxCell>
        <mxCell id="vsx25Bqa6KlZ1nPeIGmI-17" value="复制上下文" style="rounded=0;whiteSpace=wrap;html=1;fillColor=#647687;fontColor=#ffffff;strokeColor=#314354;" vertex="1" parent="1">
          <mxGeometry x="373.75" y="330" width="102.5" height="40" as="geometry" />
        </mxCell>
        <mxCell id="vsx25Bqa6KlZ1nPeIGmI-19" value="copy_page()" style="rounded=1;whiteSpace=wrap;html=1;fontFamily=Courier New;fillColor=#647687;fontColor=#ffffff;strokeColor=#314354;" vertex="1" parent="1">
          <mxGeometry x="370" y="410" width="110" height="40" as="geometry" />
        </mxCell>
        <mxCell id="vsx25Bqa6KlZ1nPeIGmI-21" value="&lt;font face=&quot;Comic Sans MS&quot;&gt;&lt;b&gt;&lt;u&gt;Where is the stack frame???&lt;/u&gt;&lt;/b&gt;&lt;/font&gt;" style="shape=note;whiteSpace=wrap;html=1;backgroundOutline=1;darkOpacity=0.05;size=11;fillColor=#f0a30a;fontColor=#000000;strokeColor=#BD7000;fontSize=16;" vertex="1" parent="1">
          <mxGeometry x="510" y="350" width="300" height="60" as="geometry" />
        </mxCell>
        <mxCell id="vsx25Bqa6KlZ1nPeIGmI-67" value="" style="group" vertex="1" connectable="0" parent="1">
          <mxGeometry width="310" height="210" as="geometry" />
        </mxCell>
        <mxCell id="vsx25Bqa6KlZ1nPeIGmI-23" value="" style="shape=table;startSize=0;container=1;collapsible=0;childLayout=tableLayout;fontSize=12;fontFamily=Courier New;" vertex="1" parent="vsx25Bqa6KlZ1nPeIGmI-67">
          <mxGeometry x="80" y="10" width="130" height="190" as="geometry" />
        </mxCell>
        <mxCell id="vsx25Bqa6KlZ1nPeIGmI-24" value="" style="shape=tableRow;horizontal=0;startSize=0;swimlaneHead=0;swimlaneBody=0;strokeColor=inherit;top=0;left=0;bottom=0;right=0;collapsible=0;dropTarget=0;fillColor=none;points=[[0,0.5],[1,0.5]];portConstraint=eastwest;fontSize=16;" vertex="1" parent="vsx25Bqa6KlZ1nPeIGmI-23">
          <mxGeometry width="130" height="24" as="geometry" />
        </mxCell>
        <mxCell id="vsx25Bqa6KlZ1nPeIGmI-39" value="ss" style="shape=partialRectangle;html=1;whiteSpace=wrap;connectable=0;overflow=hidden;top=0;left=0;bottom=0;right=0;pointerEvents=1;fontSize=12;fontFamily=Courier New;fillColor=#76608a;strokeColor=#432D57;fontColor=#ffffff;" vertex="1" parent="vsx25Bqa6KlZ1nPeIGmI-24">
          <mxGeometry width="130" height="24" as="geometry">
            <mxRectangle width="130" height="24" as="alternateBounds" />
          </mxGeometry>
        </mxCell>
        <mxCell id="vsx25Bqa6KlZ1nPeIGmI-28" value="" style="shape=tableRow;horizontal=0;startSize=0;swimlaneHead=0;swimlaneBody=0;strokeColor=inherit;top=0;left=0;bottom=0;right=0;collapsible=0;dropTarget=0;fillColor=none;points=[[0,0.5],[1,0.5]];portConstraint=eastwest;fontSize=16;" vertex="1" parent="vsx25Bqa6KlZ1nPeIGmI-23">
          <mxGeometry y="24" width="130" height="24" as="geometry" />
        </mxCell>
        <mxCell id="vsx25Bqa6KlZ1nPeIGmI-40" value="esp" style="shape=partialRectangle;html=1;whiteSpace=wrap;connectable=0;overflow=hidden;top=0;left=0;bottom=0;right=0;pointerEvents=1;fontSize=12;fontFamily=Courier New;fillColor=#76608a;strokeColor=#432D57;fontColor=#ffffff;" vertex="1" parent="vsx25Bqa6KlZ1nPeIGmI-28">
          <mxGeometry width="130" height="24" as="geometry">
            <mxRectangle width="130" height="24" as="alternateBounds" />
          </mxGeometry>
        </mxCell>
        <mxCell id="vsx25Bqa6KlZ1nPeIGmI-32" value="" style="shape=tableRow;horizontal=0;startSize=0;swimlaneHead=0;swimlaneBody=0;strokeColor=inherit;top=0;left=0;bottom=0;right=0;collapsible=0;dropTarget=0;fillColor=none;points=[[0,0.5],[1,0.5]];portConstraint=eastwest;fontSize=16;" vertex="1" parent="vsx25Bqa6KlZ1nPeIGmI-23">
          <mxGeometry y="48" width="130" height="23" as="geometry" />
        </mxCell>
        <mxCell id="vsx25Bqa6KlZ1nPeIGmI-41" value="args ..." style="shape=partialRectangle;html=1;whiteSpace=wrap;connectable=0;overflow=hidden;top=0;left=0;bottom=0;right=0;pointerEvents=1;fontSize=12;fontFamily=Courier New;fillColor=#76608a;strokeColor=#432D57;fontColor=#ffffff;" vertex="1" parent="vsx25Bqa6KlZ1nPeIGmI-32">
          <mxGeometry width="130" height="23" as="geometry">
            <mxRectangle width="130" height="23" as="alternateBounds" />
          </mxGeometry>
        </mxCell>
        <mxCell id="vsx25Bqa6KlZ1nPeIGmI-42" style="shape=tableRow;horizontal=0;startSize=0;swimlaneHead=0;swimlaneBody=0;strokeColor=inherit;top=0;left=0;bottom=0;right=0;collapsible=0;dropTarget=0;fillColor=none;points=[[0,0.5],[1,0.5]];portConstraint=eastwest;fontSize=16;" vertex="1" parent="vsx25Bqa6KlZ1nPeIGmI-23">
          <mxGeometry y="71" width="130" height="24" as="geometry" />
        </mxCell>
        <mxCell id="vsx25Bqa6KlZ1nPeIGmI-43" value="cs" style="shape=partialRectangle;html=1;whiteSpace=wrap;connectable=0;overflow=hidden;top=0;left=0;bottom=0;right=0;pointerEvents=1;fontSize=12;fontFamily=Courier New;fillColor=#76608a;strokeColor=#432D57;fontColor=#ffffff;" vertex="1" parent="vsx25Bqa6KlZ1nPeIGmI-42">
          <mxGeometry width="130" height="24" as="geometry">
            <mxRectangle width="130" height="24" as="alternateBounds" />
          </mxGeometry>
        </mxCell>
        <mxCell id="vsx25Bqa6KlZ1nPeIGmI-44" style="shape=tableRow;horizontal=0;startSize=0;swimlaneHead=0;swimlaneBody=0;strokeColor=inherit;top=0;left=0;bottom=0;right=0;collapsible=0;dropTarget=0;fillColor=none;points=[[0,0.5],[1,0.5]];portConstraint=eastwest;fontSize=16;" vertex="1" parent="vsx25Bqa6KlZ1nPeIGmI-23">
          <mxGeometry y="95" width="130" height="24" as="geometry" />
        </mxCell>
        <mxCell id="vsx25Bqa6KlZ1nPeIGmI-45" value="eip" style="shape=partialRectangle;html=1;whiteSpace=wrap;connectable=0;overflow=hidden;top=0;left=0;bottom=0;right=0;pointerEvents=1;fontSize=12;fontFamily=Courier New;fillColor=#76608a;strokeColor=#432D57;fontColor=#ffffff;" vertex="1" parent="vsx25Bqa6KlZ1nPeIGmI-44">
          <mxGeometry width="130" height="24" as="geometry">
            <mxRectangle width="130" height="24" as="alternateBounds" />
          </mxGeometry>
        </mxCell>
        <mxCell id="vsx25Bqa6KlZ1nPeIGmI-46" style="shape=tableRow;horizontal=0;startSize=0;swimlaneHead=0;swimlaneBody=0;strokeColor=inherit;top=0;left=0;bottom=0;right=0;collapsible=0;dropTarget=0;fillColor=none;points=[[0,0.5],[1,0.5]];portConstraint=eastwest;fontSize=16;" vertex="1" parent="vsx25Bqa6KlZ1nPeIGmI-23">
          <mxGeometry y="119" width="130" height="24" as="geometry" />
        </mxCell>
        <mxCell id="vsx25Bqa6KlZ1nPeIGmI-47" value="eax, ebx..." style="shape=partialRectangle;html=1;whiteSpace=wrap;connectable=0;strokeColor=#432D57;overflow=hidden;fillColor=#3B3045;top=0;left=0;bottom=0;right=0;pointerEvents=1;fontSize=12;fontFamily=Courier New;fontColor=#ffffff;" vertex="1" parent="vsx25Bqa6KlZ1nPeIGmI-46">
          <mxGeometry width="130" height="24" as="geometry">
            <mxRectangle width="130" height="24" as="alternateBounds" />
          </mxGeometry>
        </mxCell>
        <mxCell id="vsx25Bqa6KlZ1nPeIGmI-48" style="shape=tableRow;horizontal=0;startSize=0;swimlaneHead=0;swimlaneBody=0;strokeColor=inherit;top=0;left=0;bottom=0;right=0;collapsible=0;dropTarget=0;fillColor=none;points=[[0,0.5],[1,0.5]];portConstraint=eastwest;fontSize=16;" vertex="1" parent="vsx25Bqa6KlZ1nPeIGmI-23">
          <mxGeometry y="143" width="130" height="23" as="geometry" />
        </mxCell>
        <mxCell id="vsx25Bqa6KlZ1nPeIGmI-49" value="ds, es..." style="shape=partialRectangle;html=1;whiteSpace=wrap;connectable=0;strokeColor=#432D57;overflow=hidden;fillColor=#3B3045;top=0;left=0;bottom=0;right=0;pointerEvents=1;fontSize=12;fontFamily=Courier New;fontColor=#ffffff;" vertex="1" parent="vsx25Bqa6KlZ1nPeIGmI-48">
          <mxGeometry width="130" height="23" as="geometry">
            <mxRectangle width="130" height="23" as="alternateBounds" />
          </mxGeometry>
        </mxCell>
        <mxCell id="vsx25Bqa6KlZ1nPeIGmI-50" style="shape=tableRow;horizontal=0;startSize=0;swimlaneHead=0;swimlaneBody=0;strokeColor=inherit;top=0;left=0;bottom=0;right=0;collapsible=0;dropTarget=0;fillColor=none;points=[[0,0.5],[1,0.5]];portConstraint=eastwest;fontSize=16;" vertex="1" parent="vsx25Bqa6KlZ1nPeIGmI-23">
          <mxGeometry y="166" width="130" height="24" as="geometry" />
        </mxCell>
        <mxCell id="vsx25Bqa6KlZ1nPeIGmI-51" value="eflags" style="shape=partialRectangle;html=1;whiteSpace=wrap;connectable=0;strokeColor=#432D57;overflow=hidden;fillColor=#3B3045;top=0;left=0;bottom=0;right=0;pointerEvents=1;fontSize=12;fontFamily=Courier New;fontColor=#ffffff;" vertex="1" parent="vsx25Bqa6KlZ1nPeIGmI-50">
          <mxGeometry width="130" height="24" as="geometry">
            <mxRectangle width="130" height="24" as="alternateBounds" />
          </mxGeometry>
        </mxCell>
        <mxCell id="vsx25Bqa6KlZ1nPeIGmI-52" value="" style="shape=curlyBracket;whiteSpace=wrap;html=1;rounded=1;labelPosition=left;verticalLabelPosition=middle;align=right;verticalAlign=middle;" vertex="1" parent="vsx25Bqa6KlZ1nPeIGmI-67">
          <mxGeometry x="60" y="10" width="20" height="120" as="geometry" />
        </mxCell>
        <mxCell id="vsx25Bqa6KlZ1nPeIGmI-53" value="lcall" style="text;html=1;align=center;verticalAlign=middle;whiteSpace=wrap;rounded=0;fontFamily=Courier New;fontStyle=1" vertex="1" parent="vsx25Bqa6KlZ1nPeIGmI-67">
          <mxGeometry x="10" y="60" width="50" height="20" as="geometry" />
        </mxCell>
        <mxCell id="vsx25Bqa6KlZ1nPeIGmI-54" value="" style="shape=curlyBracket;whiteSpace=wrap;html=1;rounded=1;labelPosition=left;verticalLabelPosition=middle;align=right;verticalAlign=middle;" vertex="1" parent="vsx25Bqa6KlZ1nPeIGmI-67">
          <mxGeometry x="60" y="130" width="20" height="70" as="geometry" />
        </mxCell>
        <mxCell id="vsx25Bqa6KlZ1nPeIGmI-55" value="handler" style="text;html=1;align=center;verticalAlign=middle;whiteSpace=wrap;rounded=0;fontFamily=Courier New;fontStyle=1" vertex="1" parent="vsx25Bqa6KlZ1nPeIGmI-67">
          <mxGeometry y="155" width="60" height="20" as="geometry" />
        </mxCell>
        <mxCell id="vsx25Bqa6KlZ1nPeIGmI-58" value="" style="group" vertex="1" connectable="0" parent="vsx25Bqa6KlZ1nPeIGmI-67">
          <mxGeometry x="210" width="100" height="20" as="geometry" />
        </mxCell>
        <mxCell id="vsx25Bqa6KlZ1nPeIGmI-56" value="tss.esp0" style="text;html=1;align=center;verticalAlign=middle;whiteSpace=wrap;rounded=0;fontFamily=Courier New;fontStyle=1;fontColor=#FF6666;" vertex="1" parent="vsx25Bqa6KlZ1nPeIGmI-58">
          <mxGeometry x="30" width="70" height="20" as="geometry" />
        </mxCell>
        <mxCell id="vsx25Bqa6KlZ1nPeIGmI-57" value="" style="endArrow=classic;html=1;rounded=0;strokeColor=#FF6666;" edge="1" parent="vsx25Bqa6KlZ1nPeIGmI-58">
          <mxGeometry width="50" height="50" relative="1" as="geometry">
            <mxPoint x="30" y="10" as="sourcePoint" />
            <mxPoint y="10" as="targetPoint" />
          </mxGeometry>
        </mxCell>
        <mxCell id="vsx25Bqa6KlZ1nPeIGmI-59" value="" style="shape=flexArrow;endArrow=classic;html=1;rounded=0;width=3.9393939393939394;endSize=3.018181818181818;endWidth=4.1475359657177835;fillColor=#1ba1e2;strokeColor=#006EAF;" edge="1" parent="vsx25Bqa6KlZ1nPeIGmI-67">
          <mxGeometry width="50" height="50" relative="1" as="geometry">
            <mxPoint x="260" y="170" as="sourcePoint" />
            <mxPoint x="260" y="50" as="targetPoint" />
          </mxGeometry>
        </mxCell>
        <mxCell id="vsx25Bqa6KlZ1nPeIGmI-106" value="&lt;font face=&quot;Courier New&quot;&gt;&lt;b&gt;parent task&lt;/b&gt;&lt;/font&gt;" style="edgeLabel;html=1;align=center;verticalAlign=middle;resizable=0;points=[];" vertex="1" connectable="0" parent="vsx25Bqa6KlZ1nPeIGmI-59">
          <mxGeometry x="0.0471" y="-1" relative="1" as="geometry">
            <mxPoint as="offset" />
          </mxGeometry>
        </mxCell>
        <mxCell id="vsx25Bqa6KlZ1nPeIGmI-60" value="" style="group" vertex="1" connectable="0" parent="vsx25Bqa6KlZ1nPeIGmI-67">
          <mxGeometry x="210" y="190" width="100" height="20" as="geometry" />
        </mxCell>
        <mxCell id="vsx25Bqa6KlZ1nPeIGmI-61" value="tss.esp0" style="text;html=1;align=center;verticalAlign=middle;whiteSpace=wrap;rounded=0;fontFamily=Courier New;fontStyle=1;fontColor=#99FF33;" vertex="1" parent="vsx25Bqa6KlZ1nPeIGmI-60">
          <mxGeometry x="30" width="70" height="20" as="geometry" />
        </mxCell>
        <mxCell id="vsx25Bqa6KlZ1nPeIGmI-62" value="" style="endArrow=classic;html=1;rounded=0;strokeColor=#99FF33;" edge="1" parent="vsx25Bqa6KlZ1nPeIGmI-60">
          <mxGeometry width="50" height="50" relative="1" as="geometry">
            <mxPoint x="30" y="10" as="sourcePoint" />
            <mxPoint y="10" as="targetPoint" />
          </mxGeometry>
        </mxCell>
        <mxCell id="vsx25Bqa6KlZ1nPeIGmI-68" value="" style="group" vertex="1" connectable="0" parent="1">
          <mxGeometry y="240" width="310" height="210" as="geometry" />
        </mxCell>
        <mxCell id="vsx25Bqa6KlZ1nPeIGmI-69" value="" style="shape=table;startSize=0;container=1;collapsible=0;childLayout=tableLayout;fontSize=12;fontFamily=Courier New;" vertex="1" parent="vsx25Bqa6KlZ1nPeIGmI-68">
          <mxGeometry x="80" y="10" width="130" height="189" as="geometry" />
        </mxCell>
        <mxCell id="vsx25Bqa6KlZ1nPeIGmI-70" value="" style="shape=tableRow;horizontal=0;startSize=0;swimlaneHead=0;swimlaneBody=0;strokeColor=inherit;top=0;left=0;bottom=0;right=0;collapsible=0;dropTarget=0;fillColor=none;points=[[0,0.5],[1,0.5]];portConstraint=eastwest;fontSize=16;" vertex="1" parent="vsx25Bqa6KlZ1nPeIGmI-69">
          <mxGeometry width="130" height="20" as="geometry" />
        </mxCell>
        <mxCell id="vsx25Bqa6KlZ1nPeIGmI-71" value="ss" style="shape=partialRectangle;html=1;whiteSpace=wrap;connectable=0;overflow=hidden;top=0;left=0;bottom=0;right=0;pointerEvents=1;fontSize=12;fontFamily=Courier New;fillColor=#76608a;strokeColor=#432D57;fontColor=#ffffff;" vertex="1" parent="vsx25Bqa6KlZ1nPeIGmI-70">
          <mxGeometry width="130" height="20" as="geometry">
            <mxRectangle width="130" height="20" as="alternateBounds" />
          </mxGeometry>
        </mxCell>
        <mxCell id="vsx25Bqa6KlZ1nPeIGmI-72" value="" style="shape=tableRow;horizontal=0;startSize=0;swimlaneHead=0;swimlaneBody=0;strokeColor=inherit;top=0;left=0;bottom=0;right=0;collapsible=0;dropTarget=0;fillColor=none;points=[[0,0.5],[1,0.5]];portConstraint=eastwest;fontSize=16;" vertex="1" parent="vsx25Bqa6KlZ1nPeIGmI-69">
          <mxGeometry y="20" width="130" height="26" as="geometry" />
        </mxCell>
        <mxCell id="vsx25Bqa6KlZ1nPeIGmI-73" value="esp" style="shape=partialRectangle;html=1;whiteSpace=wrap;connectable=0;overflow=hidden;top=0;left=0;bottom=0;right=0;pointerEvents=1;fontSize=12;fontFamily=Courier New;fillColor=#27202E;strokeColor=#432D57;fontColor=#ffffff;" vertex="1" parent="vsx25Bqa6KlZ1nPeIGmI-72">
          <mxGeometry width="130" height="26" as="geometry">
            <mxRectangle width="130" height="26" as="alternateBounds" />
          </mxGeometry>
        </mxCell>
        <mxCell id="vsx25Bqa6KlZ1nPeIGmI-74" value="" style="shape=tableRow;horizontal=0;startSize=0;swimlaneHead=0;swimlaneBody=0;strokeColor=inherit;top=0;left=0;bottom=0;right=0;collapsible=0;dropTarget=0;fillColor=none;points=[[0,0.5],[1,0.5]];portConstraint=eastwest;fontSize=16;" vertex="1" parent="vsx25Bqa6KlZ1nPeIGmI-69">
          <mxGeometry y="46" width="130" height="24" as="geometry" />
        </mxCell>
        <mxCell id="vsx25Bqa6KlZ1nPeIGmI-75" value="args ..." style="shape=partialRectangle;html=1;whiteSpace=wrap;connectable=0;overflow=hidden;top=0;left=0;bottom=0;right=0;pointerEvents=1;fontSize=12;fontFamily=Courier New;fillColor=#76608a;strokeColor=#432D57;fontColor=#ffffff;" vertex="1" parent="vsx25Bqa6KlZ1nPeIGmI-74">
          <mxGeometry width="130" height="24" as="geometry">
            <mxRectangle width="130" height="24" as="alternateBounds" />
          </mxGeometry>
        </mxCell>
        <mxCell id="vsx25Bqa6KlZ1nPeIGmI-76" style="shape=tableRow;horizontal=0;startSize=0;swimlaneHead=0;swimlaneBody=0;strokeColor=inherit;top=0;left=0;bottom=0;right=0;collapsible=0;dropTarget=0;fillColor=none;points=[[0,0.5],[1,0.5]];portConstraint=eastwest;fontSize=16;" vertex="1" parent="vsx25Bqa6KlZ1nPeIGmI-69">
          <mxGeometry y="70" width="130" height="24" as="geometry" />
        </mxCell>
        <mxCell id="vsx25Bqa6KlZ1nPeIGmI-77" value="cs" style="shape=partialRectangle;html=1;whiteSpace=wrap;connectable=0;overflow=hidden;top=0;left=0;bottom=0;right=0;pointerEvents=1;fontSize=12;fontFamily=Courier New;fillColor=#76608a;strokeColor=#432D57;fontColor=#ffffff;" vertex="1" parent="vsx25Bqa6KlZ1nPeIGmI-76">
          <mxGeometry width="130" height="24" as="geometry">
            <mxRectangle width="130" height="24" as="alternateBounds" />
          </mxGeometry>
        </mxCell>
        <mxCell id="vsx25Bqa6KlZ1nPeIGmI-78" style="shape=tableRow;horizontal=0;startSize=0;swimlaneHead=0;swimlaneBody=0;strokeColor=inherit;top=0;left=0;bottom=0;right=0;collapsible=0;dropTarget=0;fillColor=none;points=[[0,0.5],[1,0.5]];portConstraint=eastwest;fontSize=16;" vertex="1" parent="vsx25Bqa6KlZ1nPeIGmI-69">
          <mxGeometry y="94" width="130" height="24" as="geometry" />
        </mxCell>
        <mxCell id="vsx25Bqa6KlZ1nPeIGmI-79" value="eip" style="shape=partialRectangle;html=1;whiteSpace=wrap;connectable=0;overflow=hidden;top=0;left=0;bottom=0;right=0;pointerEvents=1;fontSize=12;fontFamily=Courier New;fillColor=#76608a;strokeColor=#432D57;fontColor=#ffffff;" vertex="1" parent="vsx25Bqa6KlZ1nPeIGmI-78">
          <mxGeometry width="130" height="24" as="geometry">
            <mxRectangle width="130" height="24" as="alternateBounds" />
          </mxGeometry>
        </mxCell>
        <mxCell id="vsx25Bqa6KlZ1nPeIGmI-80" style="shape=tableRow;horizontal=0;startSize=0;swimlaneHead=0;swimlaneBody=0;strokeColor=inherit;top=0;left=0;bottom=0;right=0;collapsible=0;dropTarget=0;fillColor=none;points=[[0,0.5],[1,0.5]];portConstraint=eastwest;fontSize=16;" vertex="1" parent="vsx25Bqa6KlZ1nPeIGmI-69">
          <mxGeometry y="118" width="130" height="24" as="geometry" />
        </mxCell>
        <mxCell id="vsx25Bqa6KlZ1nPeIGmI-81" value="eax, ebx..." style="shape=partialRectangle;html=1;whiteSpace=wrap;connectable=0;strokeColor=#432D57;overflow=hidden;fillColor=#3B3045;top=0;left=0;bottom=0;right=0;pointerEvents=1;fontSize=12;fontFamily=Courier New;fontColor=#ffffff;" vertex="1" parent="vsx25Bqa6KlZ1nPeIGmI-80">
          <mxGeometry width="130" height="24" as="geometry">
            <mxRectangle width="130" height="24" as="alternateBounds" />
          </mxGeometry>
        </mxCell>
        <mxCell id="vsx25Bqa6KlZ1nPeIGmI-82" style="shape=tableRow;horizontal=0;startSize=0;swimlaneHead=0;swimlaneBody=0;strokeColor=inherit;top=0;left=0;bottom=0;right=0;collapsible=0;dropTarget=0;fillColor=none;points=[[0,0.5],[1,0.5]];portConstraint=eastwest;fontSize=16;" vertex="1" parent="vsx25Bqa6KlZ1nPeIGmI-69">
          <mxGeometry y="142" width="130" height="23" as="geometry" />
        </mxCell>
        <mxCell id="vsx25Bqa6KlZ1nPeIGmI-83" value="ds, es..." style="shape=partialRectangle;html=1;whiteSpace=wrap;connectable=0;strokeColor=#432D57;overflow=hidden;fillColor=#3B3045;top=0;left=0;bottom=0;right=0;pointerEvents=1;fontSize=12;fontFamily=Courier New;fontColor=#ffffff;" vertex="1" parent="vsx25Bqa6KlZ1nPeIGmI-82">
          <mxGeometry width="130" height="23" as="geometry">
            <mxRectangle width="130" height="23" as="alternateBounds" />
          </mxGeometry>
        </mxCell>
        <mxCell id="vsx25Bqa6KlZ1nPeIGmI-84" style="shape=tableRow;horizontal=0;startSize=0;swimlaneHead=0;swimlaneBody=0;strokeColor=inherit;top=0;left=0;bottom=0;right=0;collapsible=0;dropTarget=0;fillColor=none;points=[[0,0.5],[1,0.5]];portConstraint=eastwest;fontSize=16;" vertex="1" parent="vsx25Bqa6KlZ1nPeIGmI-69">
          <mxGeometry y="165" width="130" height="24" as="geometry" />
        </mxCell>
        <mxCell id="vsx25Bqa6KlZ1nPeIGmI-85" value="eflags" style="shape=partialRectangle;html=1;whiteSpace=wrap;connectable=0;strokeColor=#432D57;overflow=hidden;fillColor=#3B3045;top=0;left=0;bottom=0;right=0;pointerEvents=1;fontSize=12;fontFamily=Courier New;fontColor=#ffffff;" vertex="1" parent="vsx25Bqa6KlZ1nPeIGmI-84">
          <mxGeometry width="130" height="24" as="geometry">
            <mxRectangle width="130" height="24" as="alternateBounds" />
          </mxGeometry>
        </mxCell>
        <mxCell id="vsx25Bqa6KlZ1nPeIGmI-86" value="" style="shape=curlyBracket;whiteSpace=wrap;html=1;rounded=1;labelPosition=left;verticalLabelPosition=middle;align=right;verticalAlign=middle;" vertex="1" parent="vsx25Bqa6KlZ1nPeIGmI-68">
          <mxGeometry x="60" y="10" width="20" height="120" as="geometry" />
        </mxCell>
        <mxCell id="vsx25Bqa6KlZ1nPeIGmI-87" value="lcall" style="text;html=1;align=center;verticalAlign=middle;whiteSpace=wrap;rounded=0;fontFamily=Courier New;fontStyle=1" vertex="1" parent="vsx25Bqa6KlZ1nPeIGmI-68">
          <mxGeometry x="10" y="60" width="50" height="20" as="geometry" />
        </mxCell>
        <mxCell id="vsx25Bqa6KlZ1nPeIGmI-88" value="" style="shape=curlyBracket;whiteSpace=wrap;html=1;rounded=1;labelPosition=left;verticalLabelPosition=middle;align=right;verticalAlign=middle;" vertex="1" parent="vsx25Bqa6KlZ1nPeIGmI-68">
          <mxGeometry x="60" y="130" width="20" height="70" as="geometry" />
        </mxCell>
        <mxCell id="vsx25Bqa6KlZ1nPeIGmI-89" value="handler" style="text;html=1;align=center;verticalAlign=middle;whiteSpace=wrap;rounded=0;fontFamily=Courier New;fontStyle=1" vertex="1" parent="vsx25Bqa6KlZ1nPeIGmI-68">
          <mxGeometry y="155" width="60" height="20" as="geometry" />
        </mxCell>
        <mxCell id="vsx25Bqa6KlZ1nPeIGmI-93" value="" style="shape=flexArrow;endArrow=classic;html=1;rounded=0;width=3.9393939393939394;endSize=3.018181818181818;endWidth=4.1475359657177835;fillColor=#6a00ff;strokeColor=#3700CC;" edge="1" parent="vsx25Bqa6KlZ1nPeIGmI-68">
          <mxGeometry width="50" height="50" relative="1" as="geometry">
            <mxPoint x="260" y="170" as="sourcePoint" />
            <mxPoint x="260" y="50" as="targetPoint" />
          </mxGeometry>
        </mxCell>
        <mxCell id="vsx25Bqa6KlZ1nPeIGmI-107" value="&lt;font face=&quot;Courier New&quot;&gt;&lt;b&gt;child task&lt;/b&gt;&lt;/font&gt;" style="edgeLabel;html=1;align=center;verticalAlign=middle;resizable=0;points=[];" vertex="1" connectable="0" parent="vsx25Bqa6KlZ1nPeIGmI-93">
          <mxGeometry x="0.0471" y="-1" relative="1" as="geometry">
            <mxPoint as="offset" />
          </mxGeometry>
        </mxCell>
        <mxCell id="vsx25Bqa6KlZ1nPeIGmI-94" value="" style="group" vertex="1" connectable="0" parent="vsx25Bqa6KlZ1nPeIGmI-68">
          <mxGeometry x="210" y="190" width="100" height="20" as="geometry" />
        </mxCell>
        <mxCell id="vsx25Bqa6KlZ1nPeIGmI-95" value="tss.esp0" style="text;html=1;align=center;verticalAlign=middle;whiteSpace=wrap;rounded=0;fontFamily=Courier New;fontStyle=1;fontColor=#99FF33;" vertex="1" parent="vsx25Bqa6KlZ1nPeIGmI-94">
          <mxGeometry x="30" width="70" height="20" as="geometry" />
        </mxCell>
        <mxCell id="vsx25Bqa6KlZ1nPeIGmI-96" value="" style="endArrow=classic;html=1;rounded=0;strokeColor=#99FF33;" edge="1" parent="vsx25Bqa6KlZ1nPeIGmI-94">
          <mxGeometry width="50" height="50" relative="1" as="geometry">
            <mxPoint x="30" y="10" as="sourcePoint" />
            <mxPoint y="10" as="targetPoint" />
          </mxGeometry>
        </mxCell>
        <mxCell id="vsx25Bqa6KlZ1nPeIGmI-90" value="" style="group" vertex="1" connectable="0" parent="vsx25Bqa6KlZ1nPeIGmI-68">
          <mxGeometry x="210" y="70" width="100" height="20" as="geometry" />
        </mxCell>
        <mxCell id="vsx25Bqa6KlZ1nPeIGmI-91" value="tss.esp0" style="text;html=1;align=center;verticalAlign=middle;whiteSpace=wrap;rounded=0;fontFamily=Courier New;fontStyle=1;fontColor=#FF6666;fillColor=none;fillStyle=hatch;" vertex="1" parent="vsx25Bqa6KlZ1nPeIGmI-90">
          <mxGeometry x="30" width="70" height="20" as="geometry" />
        </mxCell>
        <mxCell id="vsx25Bqa6KlZ1nPeIGmI-92" value="" style="endArrow=classic;html=1;rounded=0;strokeColor=#FF6666;" edge="1" parent="vsx25Bqa6KlZ1nPeIGmI-90">
          <mxGeometry width="50" height="50" relative="1" as="geometry">
            <mxPoint x="30" y="10" as="sourcePoint" />
            <mxPoint y="10" as="targetPoint" />
          </mxGeometry>
        </mxCell>
        <mxCell id="vsx25Bqa6KlZ1nPeIGmI-101" value="" style="edgeStyle=orthogonalEdgeStyle;rounded=0;orthogonalLoop=1;jettySize=auto;html=1;" edge="1" parent="1" source="vsx25Bqa6KlZ1nPeIGmI-99" target="vsx25Bqa6KlZ1nPeIGmI-6">
          <mxGeometry relative="1" as="geometry" />
        </mxCell>
        <mxCell id="vsx25Bqa6KlZ1nPeIGmI-99" value="切换任务" style="rounded=0;whiteSpace=wrap;html=1;fillColor=#647687;fontColor=#ffffff;strokeColor=#314354;" vertex="1" parent="1">
          <mxGeometry x="708.75" y="290" width="102.5" height="40" as="geometry" />
        </mxCell>
        <mxCell id="vsx25Bqa6KlZ1nPeIGmI-102" value="&lt;p style=&quot;line-height: 240%; font-size: 11px;&quot;&gt;&lt;b&gt;&lt;u&gt;注：使用fork创建的子任务并没有得到机会运行，直到当前任务sleep才切换到子任务运行&lt;/u&gt;&lt;/b&gt;&lt;/p&gt;" style="shape=note;whiteSpace=wrap;html=1;backgroundOutline=1;darkOpacity=0.05;size=15;spacingLeft=8;spacingRight=8;spacingTop=0;fillColor=#e3c800;fontColor=#000000;strokeColor=#B09500;fontSize=11;" vertex="1" parent="1">
          <mxGeometry x="610" y="150" width="140" height="130" as="geometry" />
        </mxCell>
        <mxCell id="vsx25Bqa6KlZ1nPeIGmI-199" value="&lt;p style=&quot;line-height: 240%; font-size: 11px;&quot;&gt;&lt;b&gt;&lt;u&gt;注：要注意的是子任务虽然是从父任务中复制而来，但是子任务并没有在内核态运行，&lt;font color=&quot;#660000&quot;&gt;所以子任务没有发生特权级切换&lt;/font&gt;&lt;/u&gt;&lt;/b&gt;&lt;/p&gt;" style="shape=note;whiteSpace=wrap;html=1;backgroundOutline=1;darkOpacity=0.05;size=15;spacingLeft=8;spacingRight=8;spacingTop=0;fillColor=#e3c800;fontColor=#000000;strokeColor=#B09500;fontSize=11;" vertex="1" parent="1">
          <mxGeometry x="25" y="480" width="260" height="90" as="geometry" />
        </mxCell>
        <mxCell id="vsx25Bqa6KlZ1nPeIGmI-200" value="" style="endArrow=none;html=1;rounded=0;movable=0;resizable=0;rotatable=0;deletable=0;editable=0;locked=1;connectable=0;" edge="1" parent="1">
          <mxGeometry width="50" height="50" relative="1" as="geometry">
            <mxPoint x="320" y="910" as="sourcePoint" />
            <mxPoint x="320" as="targetPoint" />
          </mxGeometry>
        </mxCell>
        <mxCell id="vsx25Bqa6KlZ1nPeIGmI-201" value="" style="endArrow=none;html=1;rounded=0;movable=0;resizable=0;rotatable=0;deletable=0;editable=0;locked=1;connectable=0;" edge="1" parent="1">
          <mxGeometry width="50" height="50" relative="1" as="geometry">
            <mxPoint y="600" as="sourcePoint" />
            <mxPoint x="820" y="600" as="targetPoint" />
          </mxGeometry>
        </mxCell>
      </root>
    </mxGraphModel>
  </diagram>
</mxfile>
